<svg width="170" height="170" viewBox="0 0 170 170" fill="none" xmlns="http://www.w3.org/2000/svg">
<path d="M170 85C170 38.06 131.94 0 85 0C38.05 0 0 38.05 0 85C0 131.94 38.05 170 85 170C131.94 170 170 131.94 170 85Z" fill="#13B4BE"/>
<path opacity="0.1" d="M169.59 76.66L124.9 31.97L119.22 37.65L115.86 34.29L109.46 40.69L97.04 28.26L49.54 75.76L70.93 97.15L66.94 101.14L125.53 159.73C152.02 145.33 170 117.26 170 85C170 82.18 169.85 79.4 169.59 76.66Z" fill="black"/>
<mask id="mask0_0_79" style="mask-type:luminance" maskUnits="userSpaceOnUse" x="0" y="0" width="170" height="170">
<path d="M170 85C170 38.06 131.94 0 85 0C38.05 0 0 38.05 0 85C0 131.94 38.05 170 85 170C131.94 170 170 131.94 170 85Z" fill="white"/>
</mask>
<g mask="url(#mask0_0_79)">
<path d="M99.04 128.88L84.72 169.83L70.76 128.88V97.26H99.04V128.88Z" fill="#FEE1B9"/>
<path d="M84.72 169.83L99.04 128.88V97.26H84.72V169.83Z" fill="#FFD9AC"/>
<path d="M46.8599 69.19C46.3799 64.47 48.9499 60.24 52.5999 59.75C56.2499 59.26 59.5999 62.68 60.0799 67.4C60.5599 72.12 57.9899 76.34 54.3399 76.84C50.6899 77.33 47.3399 73.91 46.8599 69.19Z" fill="#FEE1B9"/>
<path d="M115.42 76.86C111.78 76.45 109.33 72.29 109.94 67.56C110.55 62.83 113.99 59.31 117.63 59.72C121.27 60.12 123.72 64.29 123.11 69.02C122.5 73.75 119.05 77.26 115.42 76.86Z" fill="#FFD9AC"/>
<path d="M85 29.48C85 29.48 54.98 30.78 54.98 46.79C54.98 46.79 54.98 73.1 54.98 79.4C54.98 85.7 65.17 103.72 74.36 104.47C78.96 104.85 85 105.36 85 105.36C85 105.36 91.04 104.84 95.64 104.47C104.83 103.72 114.92 85.71 114.92 79.4C114.92 73.1 114.92 47.68 114.92 47.68C114.92 31.67 85 29.48 85 29.48Z" fill="#FEE1B9"/>
<path d="M85 29.48C85 29.48 54.98 30.78 54.98 46.79C54.98 46.79 54.98 73.1 54.98 79.4C54.98 85.7 65.17 103.72 74.36 104.47C78.96 104.85 85 105.36 85 105.36C85 105.36 91.04 104.84 95.64 104.47C104.83 103.72 114.92 85.71 114.92 79.4C114.92 73.1 114.92 47.68 114.92 47.68C114.92 31.67 85 29.48 85 29.48Z" fill="#FEE1B9"/>
<path d="M114.92 47.68C114.92 47.68 114.92 73.1 114.92 79.4C114.92 85.7 104.73 103.72 95.5399 104.47C90.9399 104.85 84.8999 105.36 84.8999 105.36V29.48C84.8999 29.48 114.92 31.67 114.92 47.68Z" fill="#FFD9AC"/>
<path d="M85 169.83V119.42C85 119.42 74.24 116.75 71.87 108.04C70.73 103.85 70.77 104.78 70.77 109.09C70.77 122.04 40.27 116.47 32.01 126.48C25.51 135.48 21 169.84 21 169.84H85V169.83Z" fill="#FEE1B9"/>
<path d="M84.8999 169.83V116.78C84.8999 116.78 95.1499 116.58 97.1199 111.61C97.8299 109.81 99.0399 104.88 99.0399 109.19C99.0399 122.14 129.64 116.47 137.9 126.48C144.4 135.48 148.91 169.84 148.91 169.84H84.8999V169.83Z" fill="#FFD9AC"/>
<path d="M67.02 115.02C67.02 115.02 37.38 118.93 30.85 127.13C25.55 133.77 21.91 162.26 20.21 170C68.51 170 85 170 85 170V119.88L67.02 115.02Z" fill="#D0D4D7"/>
<path d="M102.98 115.02C102.98 115.02 132.79 119.03 139.32 127.23C144.62 133.87 148.1 162.26 149.8 170.01C101.5 170.01 85.01 170.01 85.01 170.01V119.89L102.98 115.02Z" fill="#B9C7D0"/>
<path d="M84.8999 153.34L84.9999 118.03L66.6899 114.28L84.9999 170" fill="#D0D4D7"/>
<path d="M87.07 128.47L91.21 124.3L85 118.04L78.79 124.3L82.93 128.47L77.29 158.96L85 170L92.73 158.96L87.07 128.47Z" fill="#436B85"/>
<path d="M91.2099 124.3L84.9999 118.04L84.8999 118.14V169.86L84.9999 170L92.7299 158.96L87.0699 128.47L91.2099 124.3Z" fill="#315D76"/>
<path d="M85 118.03L99.69 110.6L107.26 115.02L94.91 132.65L85 118.03Z" fill="#D0D4D7"/>
<path d="M85 118.03L70.31 110.6L62.73 115.02L77.66 132.65L85 118.03Z" fill="white"/>
<path d="M84.6201 94.7C88.6401 94.7 91.8901 91.83 91.8901 88.3H77.3401C77.3401 91.84 80.6001 94.7 84.6201 94.7Z" fill="white"/>
<path d="M101.77 71.13C101.77 69.75 100.65 68.63 99.27 68.63C97.89 68.63 96.77 69.75 96.77 71.13C96.77 72.51 97.89 73.63 99.27 73.63C100.65 73.63 101.77 72.51 101.77 71.13Z" fill="#726658"/>
<path d="M72.71 70.13C72.71 68.75 71.59 67.63 70.21 67.63C68.83 67.63 67.71 68.75 67.71 70.13C67.71 71.51 68.83 72.63 70.21 72.63C71.59 72.63 72.71 71.51 72.71 70.13Z" fill="#726658"/>
<path d="M75.28 65.38C75.13 65.38 74.98 65.31 74.88 65.18C73.99 63.98 72.2 63.23 70.21 63.23C68.22 63.23 66.44 63.98 65.54 65.18C65.38 65.4 65.06 65.45 64.84 65.28C64.62 65.12 64.57 64.8 64.74 64.58C65.82 63.13 67.91 62.23 70.21 62.23C72.51 62.23 74.6 63.13 75.68 64.58C75.84 64.8 75.8 65.12 75.58 65.28C75.49 65.35 75.39 65.38 75.28 65.38Z" fill="#61402F"/>
<path d="M104.39 65.38C104.24 65.38 104.09 65.31 103.99 65.18C103.1 63.98 101.31 63.23 99.3202 63.23C97.3302 63.23 95.5502 63.98 94.6502 65.18C94.4902 65.4 94.1701 65.45 93.9501 65.28C93.7301 65.12 93.6802 64.8 93.8502 64.58C94.9302 63.13 97.0202 62.23 99.3202 62.23C101.62 62.23 103.71 63.13 104.79 64.58C104.96 64.8 104.91 65.12 104.69 65.28C104.6 65.35 104.5 65.38 104.39 65.38Z" fill="#61402F"/>
<path d="M52.0799 66.14H54.9498L58.7798 39.48C58.7798 39.48 50.0498 36.06 48.2598 46.53C46.4598 57 52.0799 66.14 52.0799 66.14Z" fill="#61402F"/>
<path d="M116.33 66.14H113.46L109.63 39.48C109.63 39.48 118.36 36.06 120.15 46.53C121.95 57 116.33 66.14 116.33 66.14Z" fill="#61402F"/>
<path d="M55.4599 42.15C55.4599 42.15 67.6799 51.64 84.5999 51.64C101.52 51.64 117.52 46.4 124.79 32.14C124.39 32.26 111.83 29.97 96.0899 17.97C76.2599 2.83998 39.0699 25.33 55.4599 42.15Z" fill="#61402F"/>
</g>
</svg>
