<svg width="25" height="25" viewBox="0 0 25 25" fill="none" xmlns="http://www.w3.org/2000/svg">
<g clip-path="url(#clip0_0_914)">
<path d="M10.254 0C15.908 0 20.5079 4.5999 20.5079 10.2539C20.5079 12.7414 19.6176 15.0249 18.1388 16.8023L24.7117 23.3306C25.0944 23.7106 25.0965 24.329 24.7165 24.7116C24.5256 24.9038 24.2746 25 24.0236 25C23.7748 25 23.5259 24.9055 23.3354 24.7163L16.7535 18.1792C14.9831 19.6337 12.7187 20.5078 10.254 20.5078C8.49494 20.5078 6.7591 20.0545 5.2343 19.197C4.76418 18.9326 4.59743 18.3372 4.86184 17.8671C5.12619 17.397 5.7216 17.2302 6.19172 17.4946C7.42482 18.1881 8.82956 18.5547 10.254 18.5547C14.8311 18.5547 18.5548 14.831 18.5548 10.2539C18.5548 5.67686 14.8311 1.95312 10.254 1.95312C5.67697 1.95312 1.95324 5.67686 1.95324 10.2539C1.95324 11.6958 2.32839 13.1157 3.03806 14.3599C3.30529 14.8284 3.14211 15.4248 2.67365 15.692C2.20514 15.9592 1.60876 15.7961 1.34152 15.3276C0.463982 13.7891 0.000116348 12.0346 0.000116348 10.2539C0.000116348 4.5999 4.60002 0 10.254 0Z" fill="white"/>
</g>
<defs>
<clipPath id="clip0_0_914">
<rect width="25" height="25" fill="white" transform="matrix(-1 0 0 1 25 0)"/>
</clipPath>
</defs>
</svg>
