<svg width="30" height="30" viewBox="0 0 30 30" fill="none" xmlns="http://www.w3.org/2000/svg">
<path d="M2.68562 15.8287C2.22876 15.3718 2.22876 14.6283 2.68667 14.1704L12.9578 3.8739C13.4148 3.4157 13.414 2.67367 12.9558 2.21658C12.4975 1.75955 11.7555 1.76043 11.2984 2.21863L1.02835 12.514C-0.342446 13.8848 -0.342446 16.1153 1.0273 17.4851L11.2984 27.7814C11.5274 28.011 11.8277 28.1257 12.1281 28.1257C12.4275 28.1257 12.7271 28.0116 12.9558 27.7834C13.414 27.3263 13.4149 26.5843 12.9578 26.1261L2.68562 15.8287Z" fill="white"/>
<path d="M28.828 13.8281H7.55731C6.91002 13.8281 6.38538 14.3527 6.38538 15C6.38538 15.6473 6.91002 16.1719 7.55731 16.1719H28.8279C29.4752 16.1719 29.9998 15.6473 29.9998 15C29.9998 14.3527 29.4752 13.8281 28.828 13.8281Z" fill="white"/>
</svg>
