<svg width="170" height="170" viewBox="0 0 170 170" fill="none" xmlns="http://www.w3.org/2000/svg">
<path d="M170 85C170 38.05 131.95 0 85 0C38.06 0 0 38.06 0 85C0 131.94 38.06 170 85 170C131.94 170 170 131.94 170 85Z" fill="#39B29F"/>
<path opacity="0.1" d="M111.4 30.06L63.9001 77.56L80.3201 93.99L74.5401 99.77L85.9101 111.14L64.5601 132.5L100.61 168.55C138.96 161.43 168.26 128.58 169.92 88.57L111.4 30.06Z" fill="black"/>
<mask id="mask0_0_132" style="mask-type:luminance" maskUnits="userSpaceOnUse" x="-1" y="-1" width="172" height="172">
<path d="M98.5568 168.913C144.9 161.425 176.399 117.786 168.911 71.4432C161.424 25.1 117.785 -6.39869 71.4419 1.08889C25.0986 8.57647 -6.40008 52.215 1.0875 98.5582C8.57509 144.901 52.2136 176.4 98.5568 168.913Z" fill="white"/>
</mask>
<g mask="url(#mask0_0_132)">
<path d="M128.75 77.8C128.75 39.16 109.12 20.55 84.9001 20.55C60.6801 20.55 41.05 39.16 41.05 77.8C41.05 116.44 60.6801 163.96 84.9001 163.96C109.12 163.96 128.75 116.43 128.75 77.8Z" fill="#FBBE16"/>
<path d="M128.75 77.8C128.75 39.16 109.12 20.55 84.9001 20.55V163.96C109.12 163.96 128.75 116.43 128.75 77.8Z" fill="#EC9A1C"/>
<path d="M135.8 128.4C127.88 118.8 98.5201 124.24 98.5201 111.81V100.37H71.3901V110.94C71.3901 111.19 71.3901 111.44 71.3901 111.72C71.3901 124.15 42.1201 118.8 34.2001 128.4C27.9601 137.04 23.6401 170 23.6401 170H84.9501H85.0501H146.36C146.36 170 142.04 137.04 135.8 128.4Z" fill="#FEE1B9"/>
<path d="M98.5102 111.82V100.38H84.9502V170H85.0502H146.36C146.36 170 142.04 137.04 135.8 128.4C127.87 118.8 98.5102 124.24 98.5102 111.82Z" fill="#FFD9AC"/>
<path d="M48.4501 73.96C47.9901 69.43 50.4501 65.38 53.9601 64.9C57.4601 64.43 60.6701 67.71 61.1401 72.24C61.6001 76.77 59.1301 80.82 55.6301 81.3C52.1301 81.77 48.9101 78.48 48.4501 73.96Z" fill="#FEE1B9"/>
<path d="M121.61 73.79C122.2 69.25 119.84 65.25 116.36 64.87C112.87 64.48 109.57 67.85 108.98 72.4C108.39 76.94 110.75 80.93 114.24 81.32C117.72 81.7 121.02 78.33 121.61 73.79Z" fill="#FFD9AC"/>
<path d="M85.0502 37.44C85.0502 37.44 56.2502 41.04 56.2502 56.4C56.2502 56.4 56.2502 77.18 56.2502 83.23C56.2502 89.28 66.0302 106.56 74.8502 107.28C79.2602 107.64 85.0602 108.14 85.0602 108.14C85.0602 108.14 90.8602 107.64 95.2702 107.28C104.09 106.56 113.87 89.28 113.87 83.23C113.87 77.18 113.87 56.4 113.87 56.4C113.85 41.04 85.0502 37.44 85.0502 37.44Z" fill="#FEE1B9"/>
<path d="M113.75 56.4C113.75 56.4 113.75 77.18 113.75 83.23C113.75 89.28 103.97 106.56 95.1502 107.28C90.7402 107.64 84.9402 108.14 84.9402 108.14V37.44C84.9502 37.44 113.75 41.04 113.75 56.4Z" fill="#FFD9AC"/>
<path d="M84.8003 98.27C88.8203 98.27 92.0703 95.4 92.0703 91.87H77.5203C77.5203 95.4 80.7803 98.27 84.8003 98.27Z" fill="white"/>
<path d="M101.95 74.7C101.95 73.32 100.83 72.2 99.4502 72.2C98.0702 72.2 96.9502 73.32 96.9502 74.7C96.9502 76.08 98.0702 77.2 99.4502 77.2C100.83 77.2 101.95 76.08 101.95 74.7Z" fill="#726658"/>
<path d="M72.8901 73.7C72.8901 72.32 71.7701 71.2 70.3901 71.2C69.0101 71.2 67.8901 72.32 67.8901 73.7C67.8901 75.08 69.0101 76.2 70.3901 76.2C71.7701 76.2 72.8901 75.08 72.8901 73.7Z" fill="#726658"/>
<path d="M75.4602 68.95C75.3102 68.95 75.1602 68.88 75.0602 68.75C74.1702 67.55 72.3802 66.8 70.3902 66.8C68.4002 66.8 66.6202 67.55 65.7202 68.75C65.5602 68.97 65.2402 69.02 65.0202 68.85C64.8002 68.69 64.7502 68.37 64.9202 68.15C66.0002 66.7 68.1002 65.8 70.3902 65.8C72.6902 65.8 74.7802 66.7 75.8602 68.15C76.0202 68.37 75.9802 68.69 75.7602 68.85C75.6702 68.92 75.5702 68.95 75.4602 68.95Z" fill="#EC9A1C"/>
<path d="M104.58 68.95C104.43 68.95 104.28 68.88 104.18 68.75C103.29 67.55 101.5 66.8 99.5103 66.8C97.5203 66.8 95.7403 67.55 94.8403 68.75C94.6803 68.97 94.3603 69.02 94.1403 68.85C93.9203 68.69 93.8703 68.37 94.0403 68.15C95.1203 66.7 97.2103 65.8 99.5103 65.8C101.81 65.8 103.9 66.7 104.98 68.15C105.15 68.37 105.1 68.69 104.88 68.85C104.78 68.92 104.68 68.95 104.58 68.95Z" fill="#EC9A1C"/>
<path d="M53.5701 135.19V170H90.1201H90.2201H116.34V135.19H53.5701Z" fill="#8399AE"/>
<path d="M85.3301 135.19V170H103.39H103.43H116.34V135.19H85.3301Z" fill="#546C86"/>
<path d="M34.2001 128.4C27.9601 137.04 23.6401 170 23.6401 170H79.0401L71.3901 111.72C71.3901 124.15 42.1201 118.8 34.2001 128.4Z" fill="#243549"/>
<path d="M135.8 128.4C142.04 137.04 146.36 170 146.36 170H93.52L98.61 111.72C98.61 124.15 127.87 118.8 135.8 128.4Z" fill="#162336"/>
<path d="M56.24 62.36C56.24 62.36 79.79 58.82 85.04 45.97C85.04 36.4 85.04 31.8 85.04 31.8C85.04 31.8 49.67 31.8 56.24 62.36Z" fill="#FBBE16"/>
<path d="M113.85 62.36C113.85 62.36 90.3 58.82 85.05 45.97C85.05 36.4 85.05 31.8 85.05 31.8C85.05 31.8 120.43 31.8 113.85 62.36Z" fill="#EC9A1C"/>
</g>
</svg>
