<svg width="218" height="500" viewBox="0 0 218 500" fill="none" xmlns="http://www.w3.org/2000/svg">
<path d="M139.374 476.573C134.274 482.021 125.864 484.93 125.864 484.937C118.774 486.848 114.605 481.842 114.605 481.842C113.083 479.583 114.933 478.342 114.933 478.342C129.879 466.282 134.354 462.863 134.354 462.863H148.075C148.746 468.72 148.372 471.08 148.372 471.08C147.181 472.806 144.669 475.241 140.844 475.923C140.562 475.975 140.035 475.533 139.769 475.65L139.374 476.573Z" fill="#17181C"/>
<path d="M114.869 478.39C114.927 478.728 115.016 479.063 115.156 479.385C116.317 482.024 119.545 483.113 122.103 483.074C125.178 483.029 127.971 481.433 130.648 479.996C133.23 478.611 135.496 476.856 137.723 474.903C139.269 473.541 141.245 472.904 143.073 472.062C145.135 471.106 146.687 469.624 148.47 468.203C148.479 469.773 148.375 471.077 148.375 471.077C147.184 472.803 144.672 475.237 140.847 475.92C140.565 475.972 140.038 475.53 139.772 475.647L139.374 476.573C134.274 482.021 125.864 484.93 125.864 484.937C118.774 486.848 114.605 481.842 114.605 481.842C113.251 479.834 114.559 478.634 114.869 478.39Z" fill="black"/>
<path d="M149.591 344.757C134.329 362.638 128.283 343.724 128.283 343.724L126.394 233.822C126.195 235.457 125.689 222.738 144.954 225.491C164.163 228.238 169.027 236.185 169.027 236.185C169.027 236.185 158.454 312.097 149.591 344.757Z" fill="#E59375"/>
<path d="M128.185 342.332C128.185 342.332 135.928 458.075 136.559 462.135C136.559 462.135 145.971 464.345 146.014 462.044C146.121 456.498 156.868 388.769 157.006 380.057C157.355 358.003 151.998 353.833 146.654 338.975C146.654 338.975 128.149 324.455 128.185 342.332Z" fill="#E59375"/>
<path d="M154.185 348.918C163.052 316.257 169.024 236.185 169.024 236.185C169.024 236.185 164.16 228.238 144.951 225.491C125.686 222.738 126.192 235.457 126.391 233.822C126.391 233.822 120.556 293.416 125.901 347.579C125.901 347.582 142.357 356.859 154.185 348.918Z" fill="#104473"/>
<path d="M183.302 174.872C186.025 185.156 197.259 224.402 197.259 224.402C157.039 275.467 126.743 230.783 126.342 226.125C125.861 220.55 131.726 199.263 132.789 176.302C132.789 176.302 143.753 158.385 183.302 174.872Z" fill="#F7A483"/>
<path d="M126.574 238.906C124.666 225.15 128.62 211.28 130.654 197.381H189.569C193.339 210.708 197.259 224.402 197.259 224.402C197.259 224.402 199.777 255.929 174.549 259.706C174.549 259.706 130.58 267.793 126.574 238.906Z" fill="#104473"/>
<path d="M193.593 347.163C180.996 367.247 172.378 349.493 172.378 349.493L151.946 242.429C151.977 244.077 152.559 228.485 171.995 228.179C191.376 227.877 197.296 234.97 197.296 234.97C197.296 234.97 197.801 313.468 193.593 347.163Z" fill="#F7A483"/>
<path d="M172.087 348.131C172.087 348.131 192.319 470.095 193.511 474.012C193.511 474.012 203.125 474.717 202.846 472.435C202.178 466.936 203.912 390.026 202.834 381.39C200.102 359.524 197.244 355.763 189.884 341.907C189.884 341.907 169.554 330.455 172.087 348.131Z" fill="#F7A483"/>
<path d="M192.592 471.655L186.901 490.076C186.901 490.076 188.078 506.565 200.537 496.346L204.249 492.53C206.142 490.827 205.59 488.483 205.59 488.483L204.482 481.426L203.158 471.659C203.158 471.655 195.352 466.032 192.592 471.655Z" fill="#17181C"/>
<path d="M200.537 493.993L204.249 490.177C204.987 489.513 205.351 488.75 205.523 488.067L205.587 488.48C205.587 488.48 206.141 490.827 204.246 492.527L200.533 496.343C188.074 506.562 186.898 490.073 186.898 490.073L187.119 489.354C187.82 493.248 190.567 502.168 200.537 493.993Z" fill="black"/>
<path d="M169.885 352.445C162.788 330.338 149.392 238.906 149.392 238.906C149.422 240.554 153.404 217.069 172.84 216.767C192.221 216.461 197.259 224.399 197.259 224.399C197.259 224.399 203.33 313.888 199.119 347.579C199.119 347.582 185.468 364.312 169.885 352.445Z" fill="#065099"/>
<path d="M135.775 104.538C135.775 104.538 102.866 145.611 86.4985 159.221C86.4985 159.221 75.5002 154.907 75.8401 146.976C75.8401 146.976 99.9347 109.151 115.062 86.7712C115.062 86.7712 135.515 80.5173 135.775 104.538Z" fill="#E59375"/>
<path d="M83.5122 142.819C83.5122 142.819 42.0273 145.819 25.5865 145.478C25.5865 145.478 21.3385 148.198 25.026 150.604C31.1944 154.618 83.5979 162.032 86.4371 158.863C99.6865 144.083 83.5122 142.819 83.5122 142.819Z" fill="#E59375"/>
<path d="M113.438 99.9486C116.023 107.285 123.698 111.059 130.58 108.371C137.459 105.686 140.945 97.566 138.36 90.2264C135.772 82.8901 128.1 79.1163 121.215 81.8045C114.333 84.4926 110.853 92.6123 113.438 99.9486Z" fill="#E59375"/>
<path d="M129.87 81.0244C129.87 81.0244 118.14 76.6557 110.075 88.8775L81.3683 133.068C81.3683 133.068 87.2855 147.136 101.255 154.816C101.255 154.816 152.648 104.587 129.87 81.0244Z" fill="#872952"/>
<path d="M163.125 66.186C163.125 66.186 165.496 61.3493 170.721 52.0692C170.721 52.0692 181.845 39.945 175.612 24.71C175.612 24.71 172.191 11.9715 151.199 13.821C151.196 13.821 149.187 48.887 163.125 66.186Z" fill="#F8A07D"/>
<path d="M163.955 46.3321C163.955 46.3321 160.424 81.2811 167.958 83.9237L141.101 82.227C141.101 82.227 145.321 71.6662 140.415 63.8781L163.955 46.3321Z" fill="#F7A483"/>
<path d="M142.574 76.1226C143.021 68.1362 142.075 66.5175 140.412 63.8781L163.955 46.3321C163.955 46.3321 162.816 57.6242 163.214 67.8567C156.396 74.7022 150.767 76.3144 142.574 76.1226Z" fill="#E1876F"/>
<path d="M122.158 80.9528C116.176 85.588 115.49 96.6786 117.625 103.605C120.075 111.559 121.046 121.714 123.502 133.217C126.829 148.81 129.083 160.817 132.789 176.299C135.858 189.102 184.341 178.785 184.341 178.785L201.716 115.765C201.716 115.765 204.708 99.3147 190.665 93.8409C190.665 93.8409 175.869 85.3669 165.039 81.4729C155.477 78.0339 152.014 77.7121 142.194 78.3524C142.197 78.3524 129.043 78.866 122.158 80.9528Z" fill="#F7A483"/>
<path d="M130.795 16.4701C129.41 23.1726 127.839 26.6766 129.582 32.8232C131.153 38.3425 130.789 44.1413 133.058 49.4916C136.299 57.1204 140.513 56.1258 143.738 49.108C147.037 41.9212 150.476 32.2121 143.027 26.8911C138.246 23.4749 136.522 17.5948 130.795 16.4701Z" fill="#271000"/>
<path d="M134.945 68.8579L133.827 64.9053C133.827 64.9053 131 50.2945 131 50.2912C130.645 48.4547 130.783 46.0428 131.221 44.2193C131.695 42.2333 132.057 40.1465 131.711 37.9849C130.014 27.5054 135.389 22.0512 135.389 22.0512C141.542 12.7711 155.043 13.5024 155.043 13.5024C171.701 15.2674 172.292 32.4949 172.292 32.4949C174.463 44.0471 165.462 53.0898 165.444 53.1061C164.724 53.8277 164.898 57.6015 164.641 58.6579C163.545 63.163 159.306 65.7439 155.579 67.4764C151.484 69.3779 146.543 71.3737 142.054 71.572C140.348 71.6468 135.585 71.1234 134.945 68.8579Z" fill="#F8A07D"/>
<path d="M131.34 50.0247C133.53 52.1212 136.507 51.1656 138.841 52.6835C140.363 53.6717 141.122 53.6132 142.789 53.0931C144.124 52.677 145.193 52.8103 146.556 53.2296C147.946 53.6554 150.47 54.9394 151.818 55.5179C153.879 56.3988 156.191 56.1258 157.793 54.052C159.468 51.8872 160.102 51.4419 160.892 48.8447C162.338 44.0666 166.892 43.7773 170.029 46.4589C167.977 50.5512 165.459 53.0996 165.45 53.1094C164.73 53.831 164.905 60.7219 164.647 61.7816C163.551 66.2867 159.312 68.8676 155.585 70.6001C151.49 72.5016 145.242 72.7649 140.752 72.9632C139.049 73.038 135.594 71.1299 134.954 68.8611L133.836 64.9085C133.836 64.9085 131.009 50.2977 131.009 50.2944C130.96 50.0409 130.942 49.7549 130.911 49.4851C131.04 49.6671 131.172 49.8621 131.34 50.0247Z" fill="#271000"/>
<path d="M131.037 22.7045C134.81 22.711 134.764 26.0557 137.652 27.9215C143.845 31.9196 153.456 26.059 158.448 32.5404C158.899 33.1222 159.315 33.8048 159.713 34.5947C161.186 37.5136 161.624 41.0469 162.096 44.2811C162.234 45.2367 161.566 47.6811 162.387 48.4124C162.856 48.835 163.67 48.7115 164.531 48.4189C164.699 49.8849 163.588 51.0095 163.113 52.3552C162.635 53.7042 161.891 54.8516 162.565 56.2168C164.304 59.724 162.969 59.1455 163.125 66.1892C164.2 64.5217 166.853 62.4902 167.689 61.7166C170.111 59.4738 172.399 57.0327 174.136 54.1462C175.836 51.3183 176.95 48.1426 178.05 45.0157C179.851 39.893 180.892 34.3444 179.443 28.9714C179.443 28.9714 178.304 16.4799 168.457 15.1407C168.457 15.1407 169.71 7.09576 151.71 4.96671C151.71 4.96671 137.499 5.20399 136.721 0C136.721 0 133.848 2.60362 134.562 6.62445C134.562 6.62445 128.715 8.51622 126.09 1.42045C126.09 1.41395 121.221 20.1041 131.037 22.7045Z" fill="#271000"/>
<path d="M162.871 56.0543C163.312 56.6588 163.928 57.0879 164.761 57.2472C167.003 57.6827 169.244 55.4692 169.774 52.3032C170.301 49.1405 168.917 46.2216 166.678 45.786C165.618 45.5813 164.552 45.9713 163.67 46.7742C162.39 47.9476 161.967 50.5252 161.955 52.3617C161.946 53.8277 162.209 55.1474 162.871 56.0543Z" fill="#F8A07D"/>
<path d="M165.284 48.5944C165.631 46.9367 168.65 48.9487 168.059 49.8329C167.713 50.3432 167.11 50.6682 166.626 50.9933C165.961 51.4419 165.615 51.8807 165.435 52.703C165.41 52.8006 165.361 53.0898 165.444 53.1711C165.827 53.5287 167.367 52.0594 167.707 51.7539C168.369 51.1493 168.583 49.9954 168.396 49.1178C168.197 48.1849 167.692 47.6876 166.779 47.6323C166.059 47.5836 165.318 47.5445 165.254 48.5002C165.254 48.5197 165.266 48.6822 165.284 48.5944Z" fill="#E98B6F"/>
<path d="M166.108 50.47C165.817 50.0702 165.465 50.3237 165.095 50.5448C164.748 50.7495 164.534 51.0746 164.409 51.4614C164.127 52.3098 164.105 53.4929 164.488 54.3153C164.797 54.9784 165.398 55.4367 166.096 55.505C167.064 55.596 167.453 54.7314 167.588 53.87C167.624 53.6392 167.704 53.0899 167.508 52.9208C167.294 52.7421 167.088 53.0964 166.914 53.2394C166.675 53.4279 166.35 53.4702 166.059 53.4604C165.502 53.4409 165 53.0769 164.699 52.599C164.65 52.5145 164.605 52.4138 164.583 52.3163C164.522 52.8818 164.534 53.0119 164.626 52.7063C164.687 52.5665 164.761 52.443 164.853 52.3293C165.119 51.9652 165.529 51.7442 165.82 51.4029C165.964 51.2534 166.255 50.6748 166.108 50.47Z" fill="#E98B6F"/>
<path d="M139.735 49.1535L144.274 51.016C144.274 51.016 138.149 51.4191 137.913 49.5306C137.913 49.5306 138.841 45.8445 139.842 42.3535C139.845 42.3535 139.061 48.8772 139.735 49.1535Z" fill="#E98B6F"/>
<path d="M147.658 42.3535C147.658 43.3709 148.188 44.1933 148.838 44.1933C149.487 44.1933 150.017 43.3709 150.017 42.3535C150.017 41.3361 149.49 40.5105 148.838 40.5105C148.188 40.5105 147.658 41.3361 147.658 42.3535Z" fill="#271000"/>
<path d="M134.562 40.8096C134.562 41.827 135.092 42.6493 135.744 42.6493C136.394 42.6493 136.923 41.827 136.923 40.8096C136.923 39.7922 136.397 38.9666 135.744 38.9666C135.092 38.9666 134.562 39.7922 134.562 40.8096Z" fill="#271000"/>
<path d="M146.43 38.778C146.007 38.8723 145.903 38.2677 145.903 38.2677C145.769 37.6826 145.931 37.1886 145.931 37.1886C146.102 36.7725 146.436 36.6425 146.436 36.6425C147.53 36.48 149.652 36.7692 151.453 37.3381C152.448 37.6534 154.062 38.44 154.167 39.4119C154.197 39.7044 154.225 40.205 153.912 40.2928C153.909 40.296 150.482 39.1713 146.43 38.778Z" fill="#271000"/>
<path d="M131.539 37.195C132.73 37.2178 134.828 37.3348 137.392 37.8451C137.775 38.0564 138.029 37.5071 138.029 37.5071C138.308 36.9805 138.28 36.4604 138.28 36.4572C138.222 36.0119 137.934 35.7876 137.934 35.7876C136.923 35.3163 135.472 35.04 133.594 35.066C133.034 35.0757 132.06 35.1538 131.414 35.378C131.417 35.3845 131.291 35.7551 131.539 37.195Z" fill="#271000"/>
<path d="M137.202 55.0369C136.832 55.0336 136.629 55.2157 136.77 55.5017C136.77 55.5017 138.403 58.7587 141.263 59.126C144.124 59.4933 146.458 56.7434 146.458 56.7434C146.684 56.4768 146.485 56.2103 146.023 56.1453C146.026 56.1453 141.089 55.4789 137.202 55.0369Z" fill="white"/>
<path d="M193.189 211.921C193.189 211.921 203.507 229.593 193.189 249.398C182.871 269.21 151.367 261.987 151.278 236.332C151.183 210.984 172.92 201.292 193.189 211.921Z" fill="#065099"/>
<path d="M142.197 78.3525C142.197 78.3525 129.043 78.8661 122.158 80.9528C116.176 85.588 115.49 96.6786 117.625 103.605C120.075 111.559 121.046 121.714 123.502 133.217C126.829 148.81 122.636 160.206 126.342 175.688C129.41 188.491 193.569 175.688 193.569 175.688L201.719 115.765C201.719 115.765 204.711 99.3147 190.668 93.8409C190.668 93.8409 176.543 85.614 165.713 81.72C165.713 81.72 167.404 93.8409 148.782 90.493C148.785 90.493 137.41 87.5805 142.197 78.3525Z" fill="#872952"/>
<path d="M193.569 175.691C196.292 185.975 198.445 220.651 198.445 220.651C191.067 253.114 123.215 229.756 122.813 225.098C122.336 219.523 124.415 192.993 125.478 170.035C125.478 170.035 154.017 159.205 193.569 175.691Z" fill="#872952"/>
<path d="M173.566 117.306C177.995 126.859 194.426 175.093 199.71 182.718C201.115 184.747 214.659 194.007 217.706 181.382C210.239 131.316 198.947 102.754 198.947 102.754C198.947 102.754 185.759 91.0813 175.223 101.87C175.226 101.873 170.442 110.682 173.566 117.306Z" fill="#F7A483"/>
<path d="M171.701 108.761C170.243 117.933 176.068 126.625 184.711 128.172C193.354 129.72 201.544 123.537 203.002 114.364C204.46 105.188 198.635 96.4998 189.992 94.9526C181.348 93.4054 173.156 99.5878 171.701 108.761Z" fill="#F7A483"/>
<path d="M187.351 91.9979C187.351 91.9979 200.993 97.4262 204.221 109.173L212.64 141.148C212.64 141.148 201.608 158.174 185.165 157.609L168.92 119.312C168.92 119.315 157.992 97.8065 187.351 91.9979Z" fill="#872952"/>
<path d="M199.71 182.718C199.71 182.718 197.851 217.983 200.73 255.103C200.73 255.103 203.716 260.869 206.941 256.887C210.166 252.912 219.795 185.91 217.706 181.382C212.337 169.746 199.71 182.718 199.71 182.718Z" fill="#F7A483"/>
<path d="M200.73 255.103L194.849 261.129L186.261 266.382C188.861 269.613 192.273 267.269 192.273 267.269C190.577 273.972 189.964 278.815 189.964 278.815C189.18 281.214 191.33 281.074 191.33 281.074C193.768 278.506 196.959 270.855 196.959 270.855C195.737 275.422 192.681 282.683 192.681 282.683C192.374 284.78 194.365 284.217 194.365 284.217C198.488 281.731 199.985 272.405 199.985 272.405C199.52 275.945 196.776 283.177 196.776 283.177C197.226 284.63 197.893 284.149 197.893 284.149C201.443 282.709 202.861 273.735 202.861 273.735L202.249 277.079C201.021 281.581 203.682 280.463 203.682 280.463L204.668 278.214C207.569 271.303 206.824 265.027 206.824 265.027L206.935 256.884L200.73 255.103Z" fill="#F7A483"/>
<path d="M6.00034 146.69L9.81652 148.556C9.81652 148.556 2.07697 146.824 0.965193 143.297C0.965193 143.297 0.573162 142.627 1.84726 142.24C1.84726 142.24 8.02481 145.208 11.0753 145.796C11.0753 145.796 4.34646 144.181 0.279139 141.48C0.279139 141.48 -0.854076 139.432 1.44604 139.321C0.343456 138.047 1.9514 137.703 1.9514 137.703C1.9514 137.703 3.51646 137.618 6.82422 138.174C6.82422 138.174 11.9206 138.993 18.0094 139.214C18.0094 139.214 15.3264 134.381 17.844 132.941L22.3646 139.568L26.1379 146.248L25.023 150.607L17.2896 151.832C17.2896 151.832 10.5853 151.286 7.36326 149.736C7.36632 149.733 -1.56157 144.623 6.00034 146.69Z" fill="#E59375"/>
<path d="M169.885 352.445L187.532 469.156C187.532 469.156 193.379 475.133 206.944 469.156L209.195 412.13C209.195 412.13 213.18 374.457 199.118 347.582C199.118 347.582 171.425 323.86 169.885 352.445Z" fill="#065099"/>
<path d="M154.185 348.918C154.185 348.918 161.698 360.447 154.966 403.74L148.078 462.86C148.078 462.86 140.155 467.895 131.236 463.09L125.683 345.316C125.683 345.316 130.666 325.323 154.185 348.918Z" fill="#104473"/>
</svg>
