<svg width="213" height="182" viewBox="0 0 213 182" fill="none" xmlns="http://www.w3.org/2000/svg">
<path fill-rule="evenodd" clip-rule="evenodd" d="M192.52 55.3653C184.492 98.7781 160.778 111.651 126.925 104.764C136.424 73.6433 158.536 56.0059 192.52 55.3653ZM183.951 62.7225C157.685 63.213 140.609 76.8464 133.261 100.9C159.427 106.215 177.745 96.2656 183.951 62.7225Z" fill="white"/>
<path fill-rule="evenodd" clip-rule="evenodd" d="M121.159 118.367C146.695 155.204 176.964 147.236 212.289 91.5009C183.251 93.2826 148.366 74.1938 121.159 118.367ZM129.918 118.127C135.223 105.895 144.482 94.5138 162.2 93.9733C172.39 93.663 188.606 96.3456 198.776 97.1765C192.069 106.716 184.542 117.426 175.973 124.363C169.457 129.638 161.119 134.483 152.41 133.562C143.241 132.591 135.574 125.394 129.918 118.127Z" fill="white"/>
<path fill-rule="evenodd" clip-rule="evenodd" d="M92.1308 118.367C66.5956 155.214 36.3258 147.236 1.00099 91.5009C30.0396 93.2826 64.924 74.1938 92.1308 118.367ZM83.3721 118.127C78.0669 105.895 68.8078 94.5138 51.0903 93.9733C40.9003 93.663 24.6843 96.3456 14.5143 97.1765C21.2209 106.716 28.7483 117.426 37.3168 124.363C43.8332 129.638 52.1714 134.483 60.88 133.562C70.059 132.591 77.7166 125.394 83.3721 118.127Z" fill="white"/>
<path fill-rule="evenodd" clip-rule="evenodd" d="M20.7802 55.3653C28.8182 98.7781 52.5215 111.651 86.3749 104.764C76.8655 73.6433 54.7637 56.0059 20.7802 55.3653ZM29.3387 62.7225C55.6046 63.213 72.6814 76.8464 80.0286 100.9C53.8728 106.215 35.5448 96.2656 29.3387 62.7225Z" fill="white"/>
<path fill-rule="evenodd" clip-rule="evenodd" d="M18.3881 160.179H16.4562V166.925C15.7555 166.515 14.7445 166.164 13.4332 165.864C12.192 165.574 11.121 165.434 10.2201 165.434C8.03792 165.434 6.21612 165.814 4.74467 166.585C3.91386 167.025 3.49344 167.596 3.49344 168.317C3.49344 169.267 3.99393 169.738 4.99492 169.738C5.59551 169.738 6.38629 169.558 7.36726 169.197C7.99788 168.977 8.79867 168.687 9.78965 168.347C10.2 168.196 10.9408 168.126 12.0018 168.126C14.0538 168.126 15.5954 168.767 16.6064 170.038C17.0968 170.639 17.3371 171.35 17.3371 172.17C17.3371 174.062 16.1459 175.544 13.7636 176.625C12.7726 177.075 11.8317 177.325 10.9408 177.395C11.8016 178.256 12.6124 178.677 13.3832 178.677C13.6334 178.677 13.9037 178.637 14.184 178.577L15.9858 181.52C15.6154 181.84 14.8646 182 13.7235 182C12.8026 182 12.0118 181.68 11.3712 181.059C11.0209 180.709 10.5404 179.998 9.90976 178.897C9.36923 177.956 8.9288 177.486 8.56844 177.476C6.37628 177.415 4.68462 177.015 3.49344 176.274C2.7427 175.814 2.37234 175.183 2.37234 174.373C2.37234 173.372 2.96292 172.881 4.15409 172.881C4.59453 172.881 5.51543 173.221 6.90681 173.902C8.30819 174.583 9.45932 174.933 10.3602 174.933C12.162 174.933 13.8536 174.503 15.4352 173.652C16.206 173.231 16.5964 172.721 16.5964 172.12C16.5964 171.219 15.8857 170.769 14.4542 170.769C14.0138 170.769 12.5924 171.089 10.19 171.73C8.77865 172.11 7.90779 172.3 7.58748 172.3C5.69561 172.3 4.13407 171.41 2.91287 169.628C2.32229 168.767 2.02199 167.856 2.02199 166.865C2.01198 164.863 3.38333 163.502 6.13605 162.801C7.26716 162.511 8.32821 162.371 9.32919 162.371C10.4703 162.371 12.0919 162.651 14.184 163.201V160.179H0V158.026H18.3881V160.179ZM46.3056 158.026H17.9177V160.179H41.5609V170.609C41.5609 171.35 41.3207 172.05 40.8302 172.711C39.7592 174.162 38.1676 174.883 36.0555 174.883C34.8343 174.883 34.0435 174.613 33.7032 174.082C33.8033 173.982 33.9935 173.702 34.2337 173.271C34.7743 172.3 35.0846 171.37 35.1546 170.479L31.7313 168.737C31.6812 169.257 31.481 170.048 31.1707 171.109C30.7403 172.521 29.9996 173.662 28.9585 174.513C27.8775 175.404 26.6162 175.854 25.1648 175.854C23.373 175.854 22.4822 174.603 22.4822 172.1C22.4822 170.469 23.1528 169.017 24.4941 167.736C25.4651 166.815 26.436 165.934 27.397 165.093C26.386 164.062 25.4951 163.111 24.7144 162.251C23.313 163.171 22.1919 164.373 21.351 165.854C20.4702 167.376 20.0397 168.947 20.0397 170.569C20.0397 171.79 20.4201 172.931 21.1608 173.982C21.8315 174.933 22.6823 175.724 23.7034 176.354C24.8145 177.045 25.8955 177.385 26.9766 177.385C29.1387 177.385 30.9805 176.695 32.512 175.303C34.3038 176.695 35.9955 177.385 37.587 177.385C39.2286 177.385 40.7902 176.755 42.2716 175.514C43.8432 174.212 44.624 172.761 44.624 171.149V160.199H46.2556L46.3056 158.026ZM63.5126 160.179H51.6409V163.021C51.6909 163.021 51.741 163.041 51.791 163.091C51.8411 163.141 51.8811 163.161 51.9111 163.161C51.8211 163.161 51.761 163.151 51.751 163.141C51.751 163.081 52.6319 162.891 54.4036 162.571C55.0643 162.461 55.7049 162.391 56.3455 162.391C59.0181 162.391 60.7298 163.141 61.4906 164.633C62.0011 165.634 62.2613 167.646 62.2613 170.669V177.526C62.0111 177.426 61.0702 177.045 59.4286 176.364C59.4286 175.984 59.3585 175.734 59.1983 175.634C58.5677 176.004 58.0572 176.274 57.6468 176.465C56.3655 177.075 54.8741 177.375 53.1724 177.375C50.8301 177.375 49.0283 176.635 47.7571 175.163C47.1364 174.453 46.8261 173.652 46.8261 172.781C46.8261 171.8 47.3166 170.819 48.2876 169.838C50.1694 167.946 52.5217 167.005 55.3145 167.005C57.0062 167.005 58.3775 167.396 59.4085 168.176V166.535C58.888 165.864 58.3775 165.424 57.887 165.193C57.3966 164.973 56.7159 164.863 55.865 164.893C53.9532 164.933 52.2014 165.284 50.6199 165.944C49.9092 166.244 49.2185 166.515 48.5378 166.755V165.434C48.688 165.304 48.9182 165.113 49.2085 164.853C49.2585 164.793 49.2886 164.753 49.2986 164.743V160.148H45.655V157.996H63.5126V160.179ZM59.4185 171.44C59.4185 170.919 58.7979 170.449 57.5467 170.028C56.5157 169.678 55.6548 169.508 54.9642 169.508C52.4617 169.508 50.4497 170.419 48.9482 172.22C48.3376 172.951 48.0373 173.542 48.0373 174.012C48.2776 174.883 49.2585 175.313 50.9702 175.313C53.1824 175.313 55.1944 174.763 57.0262 173.652C58.6178 172.691 59.4185 171.96 59.4185 171.44ZM81.5303 160.179V158.026H63.1422V160.179H77.3362V163.201C75.2441 162.651 73.6225 162.371 72.4814 162.371C71.4804 162.371 70.4194 162.511 69.2883 162.801C66.5356 163.502 65.1542 164.853 65.1742 166.865C65.1742 167.846 65.4745 168.767 66.0651 169.628C67.2863 171.41 68.8478 172.3 70.7397 172.3C71.06 172.3 71.9309 172.11 73.3423 171.73C75.7446 171.089 77.166 170.769 77.6065 170.769C79.0379 170.769 79.7486 171.219 79.7486 172.12C79.7486 172.721 79.3582 173.231 78.5874 173.652C77.0059 174.503 75.3142 174.933 73.5124 174.933C72.6015 174.933 71.4604 174.583 70.059 173.902C68.6576 173.221 67.7467 172.881 67.3063 172.881C66.1151 172.881 65.5246 173.382 65.5246 174.373C65.5246 175.183 65.8949 175.814 66.6457 176.274C67.8368 177.015 69.5285 177.415 71.7207 177.476C72.081 177.486 72.5215 177.966 73.062 178.897C73.6926 179.988 74.1731 180.709 74.5234 181.059C75.1641 181.69 75.9548 182 76.8757 182C78.0169 182 78.7676 181.84 79.138 181.52L77.3362 178.577C77.0459 178.647 76.7857 178.677 76.5354 178.677C75.7647 178.677 74.9538 178.246 74.093 177.395C74.9839 177.335 75.9248 177.075 76.9158 176.625C79.2981 175.544 80.4893 174.062 80.4893 172.17C80.4893 171.35 80.2491 170.639 79.7586 170.038C78.7476 168.767 77.2061 168.126 75.154 168.126C74.093 168.126 73.3623 168.196 72.9419 168.347C71.9509 168.687 71.1401 168.977 70.5195 169.197C69.5385 169.558 68.7477 169.738 68.1471 169.738C67.1462 169.738 66.6457 169.267 66.6457 168.317C66.6457 167.606 67.0661 167.025 67.8969 166.585C69.3784 165.814 71.2002 165.434 73.3723 165.434C74.2732 165.434 75.3442 165.574 76.5855 165.864C77.9068 166.164 78.9178 166.515 79.6184 166.925V160.179H81.5303ZM97.0857 160.179H88.0768V174.503C88.0768 174.913 88.2069 175.303 88.4672 175.684C88.7374 176.094 89.0778 176.304 89.4681 176.304C91.2399 176.304 92.1308 174.483 92.1308 170.829L95.7143 172.881C94.343 175.914 92.2309 177.416 89.3681 177.405C87.7064 177.395 86.4151 176.635 85.4842 175.123C85.0738 174.473 84.8736 173.812 84.8736 173.161V160.179H81.15V158.026H84.8736V152.04L88.0868 154.263V158.016H97.0957V160.179H97.0857ZM116.455 160.179V158.026H102.081C102.081 156.385 101.8 154.703 101.24 152.981C100.069 149.358 98.477 147.006 96.4851 145.914L92.8815 145.955C93.8124 146.555 94.8234 147.606 95.9145 149.088C97.7363 151.56 98.6472 154.543 98.6472 158.036H96.6753V160.189H98.6472V175.774L101.97 177.556V170.479C101.97 169.558 102.351 168.597 103.092 167.596C103.782 166.675 104.653 165.874 105.694 165.203C106.865 164.453 107.946 164.072 108.977 164.042C110.078 164.022 110.939 164.453 111.54 165.364C112.07 166.134 112.341 167.095 112.321 168.246C112.311 170.188 111.77 171.79 110.719 173.061C109.778 174.192 108.937 175.143 108.197 175.914L111.119 177.656C111.42 177.436 111.87 177.015 112.471 176.425C114.293 174.643 115.204 172.651 115.204 170.439C115.204 169.227 114.883 167.996 114.263 166.755C112.821 163.902 110.659 162.481 107.756 162.481C106.985 162.481 106.295 162.591 105.674 162.811C104.563 163.222 103.372 164.122 102.071 165.534V160.179H116.455Z" fill="white"/>
<path fill-rule="evenodd" clip-rule="evenodd" d="M143.742 160.179H131.87V163.021C131.92 163.021 131.97 163.041 132.02 163.091C132.07 163.141 132.11 163.161 132.14 163.161C132.05 163.161 131.99 163.151 131.98 163.141C131.98 163.081 132.861 162.891 134.633 162.571C135.293 162.461 135.934 162.391 136.575 162.391C139.247 162.391 140.959 163.141 141.72 164.633C142.23 165.634 142.49 167.646 142.49 170.669V177.526C142.24 177.426 141.299 177.045 139.658 176.364C139.658 175.984 139.588 175.734 139.427 175.634C138.797 176.004 138.286 176.274 137.876 176.465C136.595 177.075 135.103 177.375 133.411 177.375C131.069 177.375 129.267 176.635 127.996 175.163C127.376 174.453 127.065 173.652 127.065 172.781C127.065 171.8 127.556 170.819 128.527 169.838C130.408 167.946 132.761 167.005 135.554 167.005C137.245 167.005 138.617 167.396 139.648 168.176V166.535C139.127 165.864 138.617 165.424 138.126 165.193C137.636 164.973 136.955 164.863 136.104 164.893C134.192 164.933 132.44 165.284 130.859 165.944C130.148 166.244 129.458 166.515 128.777 166.755V165.434C128.927 165.304 129.157 165.113 129.448 164.853C129.498 164.793 129.528 164.753 129.538 164.743V160.148H125.884V157.996H143.742V160.179ZM139.638 171.44C139.638 170.919 139.017 170.449 137.766 170.028C136.735 169.678 135.874 169.508 135.183 169.508C132.681 169.508 130.669 170.419 129.167 172.22C128.557 172.951 128.266 173.542 128.266 174.012C128.507 174.883 129.488 175.313 131.199 175.313C133.411 175.313 135.423 174.763 137.245 173.652C138.847 172.691 139.638 171.96 139.638 171.44ZM163.221 160.179V158.026H148.847C148.847 156.385 148.566 154.703 148.006 152.981C146.835 149.358 145.243 147.006 143.251 145.914L139.648 145.955C140.579 146.555 141.59 147.606 142.681 149.088C144.502 151.56 145.413 154.543 145.413 158.036H143.441V160.189H145.413V175.774L148.737 177.556V170.479C148.737 169.558 149.117 168.597 149.858 167.596C150.548 166.675 151.409 165.874 152.46 165.203C153.631 164.453 154.712 164.072 155.743 164.042C156.845 164.022 157.705 164.453 158.306 165.364C158.836 166.134 159.107 167.095 159.087 168.246C159.077 170.188 158.536 171.79 157.485 173.061C156.544 174.192 155.703 175.143 154.973 175.914L157.896 177.656C158.196 177.436 158.646 177.015 159.257 176.425C161.079 174.643 161.99 172.651 161.99 170.439C161.99 169.227 161.669 167.996 161.049 166.755C159.607 163.902 157.445 162.481 154.542 162.481C153.772 162.481 153.081 162.591 152.46 162.811C151.359 163.222 150.158 164.122 148.857 165.534V160.179H163.221ZM180.448 160.179H168.576V163.021C168.626 163.021 168.676 163.041 168.726 163.091C168.776 163.141 168.816 163.161 168.846 163.161C168.756 163.161 168.696 163.151 168.686 163.141C168.686 163.081 169.567 162.891 171.339 162.571C171.999 162.461 172.64 162.391 173.281 162.391C175.953 162.391 177.665 163.141 178.426 164.633C178.936 165.634 179.197 167.646 179.197 170.669V177.526C178.946 177.426 178.005 177.045 176.364 176.364C176.364 175.984 176.294 175.734 176.134 175.634C175.503 176.004 174.992 176.274 174.582 176.465C173.301 177.075 171.809 177.375 170.108 177.375C167.765 177.375 165.964 176.635 164.692 175.163C164.072 174.453 163.761 173.652 163.761 172.781C163.761 171.8 164.252 170.819 165.223 169.838C167.105 167.946 169.457 167.005 172.25 167.005C173.941 167.005 175.313 167.396 176.344 168.176V166.535C175.823 165.864 175.313 165.424 174.822 165.193C174.332 164.973 173.651 164.863 172.8 164.893C170.888 164.933 169.137 165.284 167.555 165.944C166.844 166.244 166.154 166.515 165.473 166.755V165.434C165.623 165.304 165.853 165.113 166.144 164.853C166.194 164.793 166.224 164.753 166.234 164.743V160.148H162.58V157.996H180.438V160.179H180.448ZM176.344 171.44C176.344 170.919 175.723 170.449 174.472 170.028C173.441 169.678 172.58 169.508 171.889 169.508C169.387 169.508 167.375 170.419 165.873 172.22C165.263 172.951 164.973 173.542 164.973 174.012C165.213 174.883 166.194 175.313 167.905 175.313C170.118 175.313 172.13 174.763 173.961 173.652C175.553 172.691 176.344 171.96 176.344 171.44ZM207.504 160.179V158.026H179.997V160.179H198.496V162.601C197.915 162.681 197.344 162.841 196.764 163.081C195.683 163.532 194.692 163.952 193.791 164.343C193.691 164.313 193.351 164.132 192.76 163.782C191.188 162.841 189.627 162.381 188.055 162.381C186.834 162.381 185.643 162.661 184.492 163.222C181.859 164.503 180.538 166.455 180.538 169.057C180.538 171.129 181.719 173.061 184.081 174.863C185.853 176.214 187.765 177.245 189.827 177.956L186.444 174.683C184.922 173.201 184.151 171.62 184.151 169.958C184.151 169.157 184.402 168.367 184.902 167.566C186.043 165.764 187.635 164.863 189.687 164.863C191.288 164.863 192.089 165.143 192.089 165.704C192.079 165.764 191.929 166.024 191.649 166.475C190.878 167.706 190.498 168.827 190.498 169.828L194.141 171.319C195.012 166.995 197.364 164.763 201.218 164.603C201.849 164.583 202.479 164.683 203.13 164.903C204.451 165.364 205.102 166.194 205.102 167.376C205.102 168.577 204.612 169.708 203.641 170.779C202.73 171.78 201.639 172.621 200.347 173.311C198.976 174.052 197.665 174.453 196.404 174.523C198.456 176.615 199.597 177.656 199.847 177.656C200.097 177.656 200.688 177.325 201.639 176.655C202.399 176.124 202.96 175.684 203.33 175.353C205.292 173.592 206.273 171.49 206.273 169.047C206.273 167.356 205.903 166.004 205.162 165.003C204.451 164.042 203.29 163.262 201.669 162.671V160.179H207.504Z" fill="white"/>
<path fill-rule="evenodd" clip-rule="evenodd" d="M25.3851 52.6826C25.325 52.7026 25.1648 52.7027 25.1448 52.7127C24.8645 52.8228 24.9646 53.1731 24.5843 53.083C24.284 52.9028 24.5843 53.083 24.4041 52.8628L23.8535 52.3523C24.2439 52.3623 24.4641 52.5325 24.7845 52.3323C24.8946 51.992 24.8245 52.002 24.5642 51.8318C24.314 51.6716 24.4942 51.9219 24.2439 51.4414C23.9036 51.4614 24.0237 51.6016 23.7234 51.4814C23.7434 51.0911 23.7735 51.4414 24.0237 51.011C24.1939 50.7307 24.0337 50.7107 24.5042 50.7207L24.5442 51.3513L25.1548 51.2612L25.315 51.7918C25.325 51.8118 25.335 51.8318 25.345 51.8518C25.4351 52.1321 25.3951 52.3623 25.3851 52.6826ZM184.121 50.2502C183.871 49.6496 183.981 50.4404 183.551 49.8999C183.371 49.6697 183.271 49.3193 183.431 49.039C183.741 49.2092 183.501 49.5996 184.141 49.4895L184.182 49.0791C183.731 48.7287 183.641 49.1792 183.711 48.1882L184.131 48.0981C184.131 49.4194 184.322 48.2583 184.672 49.2092C184.472 49.5395 184.302 49.4995 184.562 49.6897C184.682 49.6396 184.762 49.5596 184.792 49.3393C184.792 49.3093 184.802 49.2993 184.812 49.2793C184.902 49.4695 185.042 50.0801 184.992 50.2703C184.812 50.981 184.932 50.5806 185.223 51.1211C185.082 51.3413 185.112 51.2212 184.972 51.4514C184.782 51.7717 185.072 51.6616 184.742 51.7517C184.452 51.4614 184.812 51.3013 184.702 50.7607C184.242 50.7007 184.462 51.021 183.721 50.8608L183.701 50.4204L184.121 50.2502ZM12.152 48.5486C9.50941 49.0791 14.7646 55.1451 14.5544 56.2161L13.163 57.0269C13.133 57.9278 14.3242 58.6385 14.9948 58.9788C16.0358 59.4993 19.9097 58.5384 21.0308 59.3892C23.313 61.131 29.0887 59.2791 31.7013 60.5304C32.6522 60.9808 34.5441 62.152 35.0346 63.0629C35.3148 63.5934 35.5551 63.3932 36.1156 63.9938C36.6962 64.6244 39.7192 67.9577 39.9094 68.0778C40.6 68.4982 41.3608 69.4291 41.8613 70.0698C42.3518 70.6904 45.3647 72.9526 46.1055 73.7033C46.3958 73.9936 46.7461 74.4241 47.0864 74.6443C47.9673 75.2248 47.4268 75.2549 48.0974 75.6453C48.4177 75.8354 48.708 76.0457 48.9783 76.2659C51.5709 78.388 52.8821 79.6192 55.1644 81.8514C55.8851 82.5521 56.4657 82.8724 56.9962 83.4029C58.778 85.1546 60.2694 84.3038 62.3815 84.2037C63.7829 84.1436 65.1642 82.2117 66.6857 81.8314C67.4165 81.6412 68.958 80.43 69.7688 79.9295C70.3393 79.5791 69.8989 79.7793 70.1792 79.5391C70.5896 79.1887 70.3393 79.5591 70.7798 79.2588C70.7998 79.2388 73.3823 75.8054 73.6326 75.4351C74.073 74.7744 73.8328 75.5251 74.3933 74.5942C74.4934 74.4341 76.045 72.8125 76.6856 71.8215C76.9258 71.4411 77.9068 70.3701 78.1571 69.9997C78.6275 69.319 78.2471 69.5893 78.8778 69.0287C79.2281 68.7184 78.9578 68.6183 79.4683 67.9377C79.8087 67.4772 81.0599 63.3832 81.3402 63.1429C82.9318 63.213 83.2821 64.8346 83.7426 66.1459C84.193 67.4572 84.6134 68.7885 85.1239 70.1598C85.8146 72.0117 86.225 76.0457 86.5153 76.8865C86.8356 77.7974 86.4853 78.7283 86.7355 79.399C87.196 80.6602 85.9848 87.0165 85.5143 88.4579C85.3041 89.1085 85.0238 92.2917 84.8837 93.2126C84.7836 93.8632 83.9327 96.8061 83.6024 97.4067C81.8106 98.3476 75.7947 95.5449 74.083 94.704C72.9319 94.1335 70.5996 93.5729 69.2283 93.1325C68.5676 92.9223 67.2263 92.8222 66.5556 92.592C65.5246 92.2316 65.3845 92.0114 64.0932 91.7511C61.7809 91.2907 61.5807 90.63 58.5878 90.8102C57.4867 90.8703 54.764 91.7711 54.1734 92.8322C53.4427 94.1335 52.1314 94.5239 51.4908 96.5859C50.8401 98.688 51.1605 100.209 51.2706 102.251C51.4007 104.634 57.7269 111.31 59.9791 112.842C60.5697 113.242 61.3605 114.023 61.821 114.223C62.4616 114.504 62.912 115.364 63.6027 115.735C64.864 116.405 65.955 117.396 67.5866 118.187C68.9079 118.828 70.4895 119.819 71.7908 120.419C72.9719 120.96 80.5194 123.713 79.5985 125.264C78.4874 125.965 73.2622 126.165 72.1211 126.545C69.6787 127.346 68.948 128.998 67.3164 130.579C66.9961 130.89 64.8439 135.885 64.5737 136.605C63.5927 139.158 66.1552 141.15 68.0071 141.82C68.5876 142.031 69.4585 141.871 70.1091 141.881C71.0701 141.891 70.6497 142.241 71.9409 142.221C72.6616 142.211 73.4024 142.211 74.1231 142.221C75.3543 142.241 75.2442 141.921 76.045 141.891C78.8077 141.76 81.11 140.98 84.0228 141.02C85.224 141.04 86.6754 140.599 87.8266 140.399C89.4882 140.109 89.6183 139.788 91.1298 139.278C92.2309 138.908 93.7624 138.848 94.7934 138.517C98.0567 137.476 101.2 136.325 104.283 134.824C105.254 134.353 106.285 133.602 107.336 133.462C108.207 133.342 107.926 133.142 109.188 133.142C110.409 133.142 110.289 133.432 111.12 133.472C112.421 133.532 116.815 134.964 117.986 135.444C119.938 136.245 122.711 137.166 124.603 137.676C126.084 138.077 126.545 138.067 127.876 138.747C128.837 139.238 130.128 139.839 131.229 139.839C133.161 139.839 136.304 138.377 136.465 136.215C136.565 134.904 136.454 133.152 136.465 131.781C136.485 129.919 135.263 130.679 135.253 128.567C135.243 126.826 131.95 125.544 131.95 123.022C133.442 122.461 134.332 123.462 136.615 121.741C137.796 120.85 139.287 120.219 140.318 119.498C142.601 117.897 144.873 115.735 146.915 114.113C147.425 113.703 147.075 113.703 147.595 113.342C147.966 113.082 148.136 112.792 148.306 112.522C148.566 112.101 149.367 111.37 149.758 110.99C150.588 110.189 151.569 108.608 152.43 107.717C153.121 106.996 154.532 105.284 155.063 104.404C155.583 103.543 155.213 103.493 156.154 102.512C156.965 101.671 156.885 101.391 156.895 100.189C156.915 97.9873 154.552 93.8732 152.62 92.5619C150.658 91.2306 150.709 91.3307 148.546 90.6901C147.145 90.2697 145.203 91.651 143.792 91.8312C143.501 91.8712 139.247 93.2326 139.247 93.2326C138.507 93.8332 136.284 94.9643 135.343 95.2746C133.862 95.7551 132.531 96.2355 131.199 97.0764C130.909 97.2565 126.605 97.9172 125.934 97.697C125.494 97.2966 123.822 90.2296 123.552 89.1385C123.171 87.6371 122.431 86.6861 122.401 84.8143C122.391 84.1136 122.08 83.6131 122.08 82.4019C122.08 79.6492 122.13 76.8665 122.07 74.1137C122.06 73.5232 122.961 70.0397 123.151 69.6494C123.732 68.4782 124.463 67.3471 125.063 66.0958C125.654 64.8746 126.064 63.243 127.706 63.173C128.106 63.5133 128.026 64.3942 128.246 64.8847C128.887 66.276 130.348 67.6474 130.869 69.0988C131.059 69.6193 131.4 69.289 131.9 70.32C132.18 70.9006 132.4 71.1308 132.881 71.5913C133.732 72.4221 134.382 73.4231 135.013 74.0437C136.434 75.425 138.206 77.2468 139.838 78.2979C141.029 79.0686 142.32 80.7903 143.531 81.3609C143.892 81.5311 143.982 81.5411 144.292 81.7212C145.073 82.1817 144.342 81.8514 144.843 82.3719C146.114 82.502 146.755 83.1326 148.206 83.2728C148.877 83.3328 149.738 83.2728 150.118 83.0926C150.729 82.8023 150.388 82.8724 150.658 82.5921C151.109 82.1116 150.859 82.6722 151.389 82.1917C152.41 81.2608 152.831 81.3409 154.192 80.7303C154.923 80.3999 154.793 80.1897 155.533 79.9795C156.354 79.7493 155.713 79.8694 156.144 79.5391C156.534 79.2488 156.524 79.5291 157.065 79.3389C158.216 77.8674 158.236 78.1878 159.227 77.1567C159.757 76.6062 160.038 76.6562 160.558 76.3159C160.939 76.0657 160.869 75.6753 161.629 75.2148C163.131 74.324 165.203 72.6323 166.484 71.3811C167.525 70.3701 170.118 68.3381 171.139 67.3471C172.62 65.8957 174.172 64.7645 175.843 63.2931C177.165 62.1319 179.357 60.5804 180.858 59.6195C181.849 58.9888 185.773 57.4974 187.174 57.1671C187.915 56.9969 188.155 56.7466 188.756 56.5765C190.308 56.1561 192.52 55.8357 193.701 55.0049C194.191 54.6546 194.442 54.6846 195.092 54.2241C195.973 53.6135 198.275 52.1921 198.886 51.4314L198.566 50.6106C196.103 50.6106 196.894 51.4314 196.053 51.4915C194.952 51.5615 195.343 49.4695 195.343 48.7688C195.343 48.4685 195.783 41.4716 194.281 44.1642C193.971 44.7248 193.481 46.0061 193.311 46.6567C193.03 47.6977 193.22 49.2993 193.03 49.8298C192.71 50.7307 189.537 52.9129 189.627 49.6496C189.717 46.7468 187.585 46.7768 186.904 45.4555C186.754 45.1552 185.743 43.3935 185.653 43.2533C185.002 42.2924 184.432 42.1022 183.201 42.2524C182.019 42.4025 182.37 43.4435 181.889 44.4045C181.749 44.6747 180.758 46.5666 180.678 46.6567C180.568 46.7868 178.206 50.5906 178.035 50.9309C177.685 51.6016 177.075 52.032 176.574 52.9329C175.903 54.1441 176.544 54.5845 175.653 55.4654C174.292 56.8267 173.321 57.5074 171.959 58.6885C169.207 61.0709 166.604 62.4422 163.501 64.0638C160.508 65.6254 157.395 67.5273 154.582 68.9787C153.621 69.4692 150.418 70.6303 149.017 69.9997C147.485 69.309 146.815 67.4672 145.864 66.236C145.543 65.8256 143.582 62.2421 143.431 61.8316C142.36 58.8887 140.288 57.6275 138.186 53.2432C137.726 52.2722 136.645 49.1992 135.974 48.5385C134.833 47.3974 134.412 46.3664 132.821 44.7748C131.329 43.2834 130.429 42.6227 128.447 42.2323C127.746 42.1022 128.166 41.912 127.065 41.932C126.515 41.942 125.834 42.0321 125.324 41.902C124.773 41.7619 122.971 41.3114 122.471 41.3014C120.999 41.2514 119.087 39.85 117.686 39.1693C116.855 38.7589 114.183 37.3175 113.432 36.5067C111.97 34.9351 112.421 32.5728 112.421 30.6009C112.421 28.8191 112.601 26.3066 113.452 24.7151C114.183 23.3637 115.584 21.4819 115.834 20.1806C116.305 17.7682 114.853 10.7013 114.062 8.52913C113.712 7.56818 113.782 6.80743 113.192 5.93657C112.841 5.41606 112.121 4.36503 111.74 3.9346C111.71 3.89456 108.067 1.31202 107.686 1.07178C105.734 -0.159432 104.853 -0.379649 102.831 0.671387C100.859 1.69239 98.367 0.881594 97.0256 1.78248C95.2539 2.97366 94.7634 3.77444 94.1528 5.82647C93.8926 6.72735 93.8125 7.75837 93.4521 8.57918C92.9116 9.83041 93.1518 10.3009 93.0317 11.6222C92.9616 12.3829 92.7114 11.9825 92.7014 12.9835C92.7014 13.494 92.7614 14.2948 92.7114 14.7553C92.5312 16.2567 90.1589 18.7692 93.6323 22.4428C95.0537 23.9443 95.6843 24.8152 96.0347 26.9573C96.2349 28.1785 97.2058 31.5818 96.6853 32.793C95.7744 34.8851 98.0967 35.5457 94.6333 37.6578C93.7825 38.1783 90.5893 39.3795 89.5983 39.5297C88.6374 39.6798 85.4643 41.0311 84.203 41.0512C79.3382 41.1212 78.067 42.5226 74.8538 45.5356C72.8618 47.4074 73.2022 47.4675 72.1511 49.7497C70.7498 52.7827 69.939 56.6565 67.4965 58.9188C66.5656 59.7796 65.3244 61.8617 64.7438 63.0028C64.5036 63.4833 63.863 64.9247 63.7128 65.4352C63.3625 66.6064 62.8019 66.8366 62.4716 67.6574C61.911 69.0588 61.1903 71.8415 58.788 70.7104C58.3776 70.5202 57.1664 69.6093 56.6959 69.3491C56.4056 69.1889 54.4036 68.1879 54.3936 68.1879C53.4527 67.4172 52.2816 66.7965 51.1605 66.276C50.3897 65.9157 50.5799 65.9257 50.1394 65.5253C49.7991 65.215 47.9973 64.3842 47.9173 64.2941C47.3667 63.6334 46.7461 63.4933 45.8853 62.8627C45.2246 62.3822 44.5539 61.8817 43.7832 61.5013C42.9624 61.0909 42.4519 60.5103 41.7512 60.0699C41.1806 59.7096 40.2197 59.0389 39.6391 58.7186C38.8383 58.2681 38.488 57.6776 37.6371 57.2571C36.0456 56.4664 32.7423 51.9819 30.6202 50.4504C29.1588 49.3994 28.1678 48.6186 26.8765 47.2773C26.3961 46.7768 23.9637 43.7338 23.5332 43.7038C19.7295 43.4335 21.8716 45.2954 20.3701 47.4675C19.269 49.0691 18.7485 50.7307 18.7785 52.7927C18.8286 55.9258 15.9157 53.3833 15.0349 52.5025C14.7446 52.1621 12.2521 48.5886 12.152 48.5486ZM183.711 48.1982C183.641 49.1792 183.731 48.7387 184.182 49.0891L184.141 49.4995C183.501 49.6196 183.741 49.2192 183.431 49.0491C183.271 49.3193 183.371 49.6697 183.551 49.9099C183.981 50.4504 183.871 49.6597 184.121 50.2602L183.681 50.4404L183.701 50.8809C184.442 51.041 184.222 50.7207 184.682 50.7808C184.792 51.3213 184.432 51.4915 184.722 51.7717C185.052 51.6816 184.772 51.7918 184.952 51.4714C185.092 51.2312 185.062 51.3613 185.203 51.1411C184.912 50.6006 184.792 51.001 184.972 50.2903C185.022 50.1001 184.882 49.4795 184.792 49.2993C184.782 49.3193 184.782 49.3293 184.772 49.3594C184.742 49.5796 184.662 49.6597 184.542 49.7097C184.282 49.5195 184.452 49.5596 184.652 49.2292C184.302 48.2683 184.111 49.4394 184.111 48.1181L183.711 48.1982ZM23.7234 51.4614C24.0237 51.5815 23.9036 51.4314 24.2439 51.4214C24.4942 51.9019 24.324 51.6516 24.5642 51.8118C24.8245 51.9819 24.9046 51.9819 24.7845 52.3123C24.4641 52.5125 24.2439 52.3423 23.8535 52.3323L24.4041 52.8428C24.5843 53.063 24.294 52.8828 24.5843 53.063C24.9646 53.1531 24.8645 52.8028 25.1448 52.6926C25.1648 52.6826 25.325 52.6826 25.3851 52.6626C25.3951 52.3523 25.4351 52.1121 25.335 51.8318C25.325 51.8118 25.315 51.7918 25.305 51.7717L25.1448 51.2412L24.5342 51.3313L24.4942 50.7007C24.0337 50.6907 24.1839 50.7107 24.0137 50.991C23.7735 51.4214 23.7534 51.071 23.7234 51.4614Z" fill="white"/>
</svg>
