<svg width="73" height="65" viewBox="0 0 73 65" fill="none" xmlns="http://www.w3.org/2000/svg">
<path fill-rule="evenodd" clip-rule="evenodd" d="M66.2019 19.7733C63.4413 35.2779 55.287 39.8753 43.6458 37.4157C46.9124 26.3012 54.516 20.0021 66.2019 19.7733ZM63.2554 22.4009C54.2234 22.5761 48.3512 27.4452 45.8247 36.0358C54.8223 37.9341 61.1213 34.3806 63.2554 22.4009Z" fill="white"/>
<path fill-rule="evenodd" clip-rule="evenodd" d="M41.6628 42.2741C50.4436 55.4299 60.8525 52.5842 72.9997 32.6789C63.0142 33.3153 51.0185 26.4978 41.6628 42.2741ZM44.6747 42.1883C46.499 37.8197 49.6829 33.755 55.7754 33.5619C59.2795 33.4511 64.8557 34.4092 68.3529 34.7059C66.0467 38.1128 63.4582 41.938 60.5118 44.4155C58.271 46.2995 55.4037 48.0298 52.4091 47.7009C49.2561 47.3541 46.6195 44.7837 44.6747 42.1883Z" fill="white"/>
<path fill-rule="evenodd" clip-rule="evenodd" d="M31.6808 42.2741C22.9 55.4335 12.4911 52.5842 0.343933 32.6789C10.3295 33.3153 22.3252 26.4978 31.6808 42.2741ZM28.669 42.1883C26.8446 37.8197 23.6607 33.755 17.5682 33.5619C14.0641 33.4511 8.48794 34.4092 4.99076 34.7059C7.29697 38.1128 9.88543 41.938 12.8319 44.4155C15.0727 46.2995 17.9399 48.0297 20.9346 47.7009C24.091 47.3541 26.7242 44.7837 28.669 42.1883Z" fill="white"/>
<path fill-rule="evenodd" clip-rule="evenodd" d="M7.14581 19.7733C9.90982 35.2779 18.0607 39.8753 29.7019 37.4157C26.4319 26.3012 18.8317 20.0021 7.14581 19.7733ZM10.0888 22.4009C19.1209 22.5761 24.9931 27.4452 27.5196 36.0358C18.5254 37.9341 12.2229 34.3806 10.0888 22.4009Z" fill="white"/>
<path fill-rule="evenodd" clip-rule="evenodd" d="M6.32313 57.2066H5.65881V59.6161C5.41786 59.4696 5.07021 59.3444 4.6193 59.2372C4.19248 59.1335 3.82417 59.0835 3.51438 59.0835C2.764 59.0835 2.13754 59.2193 1.63155 59.4946C1.34586 59.6519 1.20129 59.8556 1.20129 60.113C1.20129 60.4527 1.3734 60.6207 1.71761 60.6207C1.92413 60.6207 2.19606 60.5563 2.53338 60.4276C2.75024 60.349 3.0256 60.2453 3.36637 60.1238C3.5075 60.0701 3.76221 60.0451 4.12708 60.0451C4.83271 60.0451 5.36279 60.2739 5.71044 60.7279C5.8791 60.9424 5.96171 61.1962 5.96171 61.4894C5.96171 62.1651 5.5521 62.6942 4.73288 63.0803C4.39212 63.2411 4.06856 63.3305 3.76221 63.3555C4.05823 63.663 4.33704 63.8131 4.60209 63.8131C4.68814 63.8131 4.78107 63.7988 4.87745 63.7774L5.49703 64.8284C5.36967 64.9428 5.11152 65 4.71912 65C4.40244 65 4.13052 64.8856 3.91022 64.664C3.78975 64.5388 3.62453 64.285 3.40768 63.8918C3.2218 63.5557 3.07035 63.3877 2.94644 63.3841C2.19262 63.3627 1.6109 63.2197 1.20129 62.9551C0.943135 62.7907 0.815777 62.5655 0.815777 62.2759C0.815777 61.9184 1.01886 61.7432 1.42847 61.7432C1.57992 61.7432 1.8966 61.8648 2.37505 62.1079C2.85694 62.351 3.25278 62.4761 3.56257 62.4761C4.18215 62.4761 4.76386 62.3224 5.30772 62.0185C5.57276 61.8683 5.707 61.686 5.707 61.4715C5.707 61.1498 5.46261 60.9889 4.97039 60.9889C4.81894 60.9889 4.33016 61.1033 3.50406 61.3321C3.01872 61.4679 2.71926 61.5359 2.60911 61.5359C1.95855 61.5359 1.42159 61.2177 1.00165 60.5814C0.798567 60.2739 0.695304 59.9486 0.695304 59.5947C0.691862 58.8797 1.16343 58.3935 2.11001 58.1432C2.49896 58.0396 2.86383 57.9895 3.20804 57.9895C3.60043 57.9895 4.15805 58.0896 4.87745 58.2862V57.2066H0V56.438H6.32313V57.2066ZM15.9231 56.438H6.16136V57.2066H14.2916V60.9317C14.2916 61.1962 14.209 61.4465 14.0403 61.6824C13.672 62.2008 13.1247 62.4582 12.3984 62.4582C11.9785 62.4582 11.7066 62.3617 11.5895 62.1722C11.624 62.1365 11.6894 62.0364 11.772 61.8826C11.9578 61.5359 12.0646 61.2034 12.0886 60.8852L10.9115 60.2632C10.8942 60.4491 10.8254 60.7315 10.7187 61.1105C10.5707 61.6145 10.316 62.0221 9.95799 62.3259C9.58624 62.6441 9.15254 62.805 8.65343 62.805C8.0373 62.805 7.73095 62.3581 7.73095 61.4644C7.73095 60.8817 7.96157 60.3633 8.42281 59.9057C8.7567 59.5768 9.09058 59.2622 9.42102 58.9619C9.07337 58.5937 8.76702 58.2541 8.49854 57.9466C8.01665 58.2755 7.63113 58.7045 7.342 59.2336C7.03909 59.777 6.89108 60.3383 6.89108 60.9174C6.89108 61.3535 7.02188 61.7611 7.2766 62.1365C7.50722 62.4761 7.79979 62.7585 8.15089 62.9837C8.53296 63.2304 8.90471 63.3519 9.27645 63.3519C10.0199 63.3519 10.6533 63.1053 11.1799 62.6084C11.7961 63.1053 12.3778 63.3519 12.9251 63.3519C13.4896 63.3519 14.0266 63.1267 14.536 62.6834C15.0764 62.2187 15.3449 61.7003 15.3449 61.1248V57.2138H15.9059L15.9231 56.438ZM21.8401 57.2066H17.7578V58.2219C17.775 58.2219 17.7922 58.229 17.8094 58.2469C17.8266 58.2648 17.8404 58.2719 17.8507 58.2719C17.8197 58.2719 17.7991 58.2684 17.7956 58.2648C17.7956 58.2433 18.0986 58.1754 18.7078 58.061C18.935 58.0217 19.1553 57.9967 19.3756 57.9967C20.2946 57.9967 20.8832 58.2648 21.1448 58.7975C21.3204 59.155 21.4099 59.8735 21.4099 60.9532V63.402C21.3238 63.3662 21.0002 63.2304 20.4357 62.9873C20.4357 62.8515 20.4116 62.7621 20.3566 62.7263C20.1397 62.8586 19.9642 62.9551 19.823 63.0231C19.3825 63.2411 18.8696 63.3484 18.2844 63.3484C17.479 63.3484 16.8594 63.0838 16.4223 62.5583C16.2088 62.3045 16.1021 62.0185 16.1021 61.7075C16.1021 61.3571 16.2708 61.0068 16.6047 60.6564C17.2518 59.9808 18.0607 59.6447 19.021 59.6447C19.6027 59.6447 20.0743 59.7841 20.4289 60.063V59.4767C20.2499 59.2372 20.0743 59.0799 19.9057 58.9977C19.737 58.919 19.5029 58.8797 19.2104 58.8904C18.5529 58.9047 17.9505 59.0298 17.4067 59.2658C17.1623 59.373 16.9248 59.4696 16.6907 59.5554V59.0835C16.7424 59.037 16.8215 58.9691 16.9214 58.8761C16.9386 58.8547 16.9489 58.8404 16.9523 58.8368V57.1959H15.6994V56.4273H21.8401V57.2066ZM20.4323 61.2284C20.4323 61.0425 20.2189 60.8745 19.7886 60.7244C19.4341 60.5992 19.1381 60.5385 18.9006 60.5385C18.04 60.5385 17.3482 60.8638 16.8319 61.5073C16.6219 61.7682 16.5186 61.9792 16.5186 62.1472C16.6012 62.4582 16.9386 62.6119 17.5272 62.6119C18.2879 62.6119 18.9797 62.4153 19.6096 62.0185C20.1569 61.6753 20.4323 61.4143 20.4323 61.2284ZM28.0359 57.2066V56.438H21.7128V57.2066H26.5937V58.2862C25.8743 58.0896 25.3166 57.9895 24.9242 57.9895C24.58 57.9895 24.2152 58.0396 23.8262 58.1432C22.8796 58.3935 22.4046 58.8761 22.4115 59.5947C22.4115 59.945 22.5148 60.2739 22.7178 60.5814C23.1378 61.2177 23.6748 61.5359 24.3253 61.5359C24.4355 61.5359 24.7349 61.4679 25.2203 61.3321C26.0464 61.1033 26.5351 60.9889 26.6866 60.9889C27.1788 60.9889 27.4232 61.1498 27.4232 61.4715C27.4232 61.686 27.289 61.8683 27.0239 62.0185C26.4801 62.3224 25.8983 62.4761 25.2788 62.4761C24.9655 62.4761 24.5731 62.351 24.0912 62.1079C23.6094 61.8648 23.2961 61.7432 23.1447 61.7432C22.7351 61.7432 22.532 61.922 22.532 62.2759C22.532 62.5655 22.6593 62.7907 22.9175 62.9551C23.3271 63.2197 23.9088 63.3627 24.6626 63.3841C24.7866 63.3877 24.938 63.5593 25.1239 63.8918C25.3407 64.2814 25.5059 64.5388 25.6264 64.664C25.8467 64.8892 26.1186 65 26.4353 65C26.8277 65 27.0859 64.9428 27.2132 64.8284L26.5937 63.7774C26.4938 63.8024 26.4043 63.8131 26.3183 63.8131C26.0532 63.8131 25.7744 63.6594 25.4784 63.3555C25.7848 63.3341 26.1083 63.2411 26.4491 63.0803C27.2683 62.6942 27.6779 62.1651 27.6779 61.4894C27.6779 61.1962 27.5953 60.9424 27.4266 60.7279C27.079 60.2739 26.5489 60.0451 25.8433 60.0451C25.4784 60.0451 25.2271 60.0701 25.0826 60.1238C24.7418 60.2453 24.463 60.349 24.2496 60.4276C23.9123 60.5563 23.6403 60.6207 23.4338 60.6207C23.0896 60.6207 22.9175 60.4527 22.9175 60.113C22.9175 59.8592 23.0621 59.6519 23.3478 59.4946C23.8572 59.2193 24.4836 59.0835 25.2306 59.0835C25.5404 59.0835 25.9087 59.1335 26.3355 59.2372C26.7899 59.3444 27.1375 59.4696 27.3784 59.6161V57.2066H28.0359ZM33.3849 57.2066H30.287V62.3224C30.287 62.4689 30.3318 62.6084 30.4213 62.7442C30.5142 62.8908 30.6312 62.9659 30.7655 62.9659C31.3747 62.9659 31.6811 62.3152 31.6811 61.0104L32.9133 61.7432C32.4418 62.8264 31.7155 63.3627 30.7311 63.3591C30.1597 63.3555 29.7156 63.0838 29.3955 62.544C29.2544 62.3116 29.1856 62.0757 29.1856 61.8433V57.2066H27.9051V56.438H29.1856V54.3002L30.2905 55.0938V56.4344H33.3884V57.2066H33.3849ZM40.0454 57.2066V56.438H35.1025C35.1025 55.8517 35.0061 55.2511 34.8134 54.6362C34.4107 53.3421 33.8634 52.502 33.1784 52.1123L31.9392 52.1266C32.2593 52.3411 32.607 52.7165 32.9822 53.2456C33.6086 54.1286 33.9219 55.1939 33.9219 56.4416H33.2438V57.2102H33.9219V62.7764L35.0647 63.4127V60.8852C35.0647 60.5563 35.1955 60.2131 35.4502 59.8556C35.6877 59.5268 35.9871 59.2408 36.3451 59.0012C36.7478 58.7331 37.1196 58.5973 37.4741 58.5865C37.8528 58.5794 38.1488 58.7331 38.3553 59.0584C38.5377 59.3337 38.6307 59.6769 38.6238 60.088C38.6203 60.7816 38.4345 61.3535 38.073 61.8076C37.7495 62.2115 37.4604 62.5512 37.2056 62.8264L38.2107 63.4485C38.314 63.3698 38.4689 63.2197 38.6754 63.0087C39.3019 62.3724 39.6151 61.661 39.6151 60.8709C39.6151 60.4384 39.505 59.9986 39.2915 59.5554C38.7959 58.5365 38.0524 58.0288 37.0542 58.0288C36.7891 58.0288 36.5516 58.0682 36.3382 58.1468C35.9562 58.2934 35.5465 58.6151 35.0991 59.1192V57.2066H40.0454Z" fill="white"/>
<path fill-rule="evenodd" clip-rule="evenodd" d="M49.4288 57.2066H45.3465V58.2219C45.3637 58.2219 45.3809 58.229 45.3981 58.2469C45.4153 58.2648 45.4291 58.2719 45.4394 58.2719C45.4084 58.2719 45.3878 58.2684 45.3843 58.2648C45.3843 58.2433 45.6872 58.1754 46.2965 58.061C46.5237 58.0217 46.744 57.9967 46.9642 57.9967C47.8833 57.9967 48.4719 58.2648 48.7335 58.7975C48.909 59.155 48.9985 59.8735 48.9985 60.9532V63.402C48.9125 63.3662 48.5889 63.2304 48.0244 62.9873C48.0244 62.8515 48.0003 62.7621 47.9452 62.7263C47.7284 62.8586 47.5528 62.9551 47.4117 63.0231C46.9711 63.2411 46.4583 63.3484 45.8765 63.3484C45.0711 63.3484 44.4515 63.0838 44.0144 62.5583C43.801 62.3045 43.6943 62.0185 43.6943 61.7075C43.6943 61.3571 43.8629 61.0068 44.1968 60.6564C44.8439 59.9808 45.6528 59.6447 46.6132 59.6447C47.1949 59.6447 47.6664 59.7841 48.021 60.063V59.4767C47.842 59.2372 47.6664 59.0799 47.4978 58.9977C47.3291 58.919 47.095 58.8797 46.8025 58.8904C46.145 58.9047 45.5427 59.0298 44.9988 59.2658C44.7544 59.373 44.5169 59.4696 44.2828 59.5554V59.0835C44.3345 59.037 44.4137 58.9691 44.5135 58.8761C44.5307 58.8547 44.541 58.8404 44.5445 58.8368V57.1959H43.2881V56.4273H49.4288V57.2066ZM48.0175 61.2284C48.0175 61.0425 47.8041 60.8745 47.3739 60.7244C47.0193 60.5992 46.7233 60.5385 46.4858 60.5385C45.6253 60.5385 44.9334 60.8638 44.4171 61.5073C44.2071 61.7682 44.1073 61.9792 44.1073 62.1472C44.1899 62.4582 44.5272 62.6119 45.1158 62.6119C45.8765 62.6119 46.5684 62.4153 47.1949 62.0185C47.7456 61.6753 48.0175 61.4143 48.0175 61.2284ZM56.1271 57.2066V56.438H51.1843C51.1843 55.8517 51.0879 55.2511 50.8951 54.6362C50.4924 53.3421 49.9451 52.502 49.2601 52.1123L48.021 52.1266C48.3411 52.3411 48.6887 52.7165 49.0639 53.2456C49.6904 54.1286 50.0036 55.1939 50.0036 56.4416H49.3255V57.2102H50.0036V62.7764L51.1464 63.4127V60.8852C51.1464 60.5563 51.2772 60.2131 51.5319 59.8556C51.7694 59.5268 52.0654 59.2408 52.4269 59.0012C52.8296 58.7331 53.2013 58.5973 53.5559 58.5865C53.9345 58.5794 54.2305 58.7331 54.437 59.0584C54.6195 59.3337 54.7124 59.6769 54.7055 60.088C54.7021 60.7816 54.5162 61.3535 54.1548 61.8076C53.8312 62.2115 53.5421 62.5512 53.2908 62.8264L54.2959 63.4485C54.3992 63.3698 54.5541 63.2197 54.764 63.0087C55.3905 62.3724 55.7037 61.661 55.7037 60.8709C55.7037 60.4384 55.5936 59.9986 55.3802 59.5554C54.8845 58.5365 54.141 58.0288 53.1428 58.0288C52.8778 58.0288 52.6403 58.0682 52.4269 58.1468C52.0482 58.2934 51.6352 58.6151 51.1877 59.1192V57.2066H56.1271ZM62.051 57.2066H57.9686V58.2219C57.9858 58.2219 58.0031 58.229 58.0203 58.2469C58.0375 58.2648 58.0512 58.2719 58.0616 58.2719C58.0306 58.2719 58.0099 58.2684 58.0065 58.2648C58.0065 58.2433 58.3094 58.1754 58.9186 58.061C59.1458 58.0217 59.3661 57.9967 59.5864 57.9967C60.5055 57.9967 61.0941 58.2648 61.3557 58.7975C61.5312 59.155 61.6207 59.8735 61.6207 60.9532V63.402C61.5346 63.3662 61.2111 63.2304 60.6466 62.9873C60.6466 62.8515 60.6225 62.7621 60.5674 62.7263C60.3506 62.8586 60.175 62.9551 60.0339 63.0231C59.5933 63.2411 59.0804 63.3484 58.4953 63.3484C57.6898 63.3484 57.0702 63.0838 56.6331 62.5583C56.4197 62.3045 56.313 62.0185 56.313 61.7075C56.313 61.3571 56.4816 61.0068 56.8155 60.6564C57.4626 59.9808 58.2715 59.6447 59.2319 59.6447C59.8136 59.6447 60.2852 59.7841 60.6397 60.063V59.4767C60.4607 59.2372 60.2852 59.0799 60.1165 58.9977C59.9478 58.919 59.7138 58.8797 59.4212 58.8904C58.7638 58.9047 58.1614 59.0298 57.6175 59.2658C57.3731 59.373 57.1356 59.4696 56.9016 59.5554V59.0835C56.9532 59.037 57.0324 58.9691 57.1322 58.8761C57.1494 58.8547 57.1597 58.8404 57.1632 58.8368V57.1959H55.9068V56.4273H62.0475V57.2066H62.051ZM60.6397 61.2284C60.6397 61.0425 60.4263 60.8745 59.996 60.7244C59.6415 60.5992 59.3455 60.5385 59.108 60.5385C58.2474 60.5385 57.5556 60.8638 57.0393 61.5073C56.8293 61.7682 56.7295 61.9792 56.7295 62.1472C56.8121 62.4582 57.1494 62.6119 57.738 62.6119C58.4987 62.6119 59.1906 62.4153 59.8205 62.0185C60.3678 61.6753 60.6397 61.4143 60.6397 61.2284ZM71.3549 57.2066V56.438H61.8961V57.2066H68.2571V58.0717C68.0574 58.1003 67.8612 58.1575 67.6616 58.2433C67.2898 58.4042 66.9491 58.5544 66.6393 58.6938C66.6049 58.6831 66.4878 58.6187 66.2847 58.4936C65.7443 58.1575 65.2074 57.9931 64.667 57.9931C64.247 57.9931 63.8374 58.0932 63.4416 58.2934C62.5363 58.751 62.0819 59.4481 62.0819 60.3776C62.0819 61.1176 62.4881 61.8076 63.3004 62.4511C63.9097 62.9337 64.5671 63.3019 65.2762 63.5557L64.1128 62.3867C63.5896 61.8576 63.3245 61.2928 63.3245 60.6993C63.3245 60.4133 63.4106 60.1309 63.5827 59.8449C63.9751 59.2014 64.5224 58.8797 65.228 58.8797C65.7788 58.8797 66.0541 58.9798 66.0541 59.18C66.0507 59.2014 65.999 59.2944 65.9027 59.4553C65.6376 59.895 65.5068 60.2954 65.5068 60.6529L66.7597 61.1855C67.0592 59.6411 67.8681 58.8439 69.1933 58.7867C69.4102 58.7796 69.627 58.8153 69.8507 58.894C70.3051 59.0584 70.5288 59.3552 70.5288 59.777C70.5288 60.206 70.3602 60.61 70.0263 60.9925C69.7131 61.35 69.3379 61.6503 68.8938 61.8969C68.4223 62.1615 67.9714 62.3045 67.5377 62.3295C68.2433 63.0767 68.6357 63.4485 68.7217 63.4485C68.8078 63.4485 69.0109 63.3305 69.3379 63.091C69.5995 62.9015 69.7922 62.7442 69.9196 62.6262C70.5942 61.997 70.9316 61.2463 70.9316 60.374C70.9316 59.7698 70.8042 59.2872 70.5495 58.9297C70.3051 58.5865 69.9058 58.3077 69.3482 58.0968V57.2066H71.3549Z" fill="white"/>
<path fill-rule="evenodd" clip-rule="evenodd" d="M8.72868 18.8152C8.70803 18.8224 8.65296 18.8224 8.64607 18.8259C8.54969 18.8653 8.58411 18.9904 8.45331 18.9582C8.35005 18.8939 8.45331 18.9582 8.39136 18.8796L8.20204 18.6972C8.33628 18.7008 8.41201 18.7616 8.52215 18.6901C8.56002 18.5685 8.53592 18.5721 8.44643 18.5113C8.36038 18.4541 8.42233 18.5435 8.33628 18.3719C8.21925 18.3791 8.26056 18.4291 8.15729 18.3862C8.16418 18.2468 8.1745 18.3719 8.26056 18.2182C8.31907 18.1181 8.264 18.111 8.42578 18.1145L8.43954 18.3398L8.64951 18.3076L8.70459 18.497C8.70803 18.5042 8.71147 18.5113 8.71491 18.5185C8.74589 18.6186 8.73212 18.7008 8.72868 18.8152ZM63.3135 17.9465C63.2274 17.732 63.2653 18.0144 63.1173 17.8214C63.0553 17.7392 63.0209 17.614 63.076 17.5139C63.1827 17.5747 63.1001 17.7141 63.3204 17.6748L63.3341 17.5282C63.1792 17.4031 63.1483 17.564 63.1723 17.2101L63.3169 17.1779C63.3169 17.6498 63.3823 17.2351 63.5028 17.5747C63.4339 17.6927 63.3754 17.6784 63.4649 17.7463C63.5062 17.7284 63.5338 17.6998 63.5441 17.6212C63.5441 17.6105 63.5475 17.6069 63.551 17.5997C63.582 17.6677 63.6301 17.8857 63.6129 17.9537C63.551 18.2075 63.5923 18.0645 63.6921 18.2575C63.6439 18.3362 63.6542 18.2933 63.606 18.3755C63.5406 18.4899 63.6405 18.4506 63.5269 18.4827C63.4271 18.3791 63.551 18.3219 63.5131 18.1288C63.3548 18.1074 63.4305 18.2218 63.1758 18.1646L63.1689 18.0073L63.3135 17.9465ZM4.17823 17.3388C3.26951 17.5282 5.07661 19.6947 5.00433 20.0772L4.52588 20.3667C4.51555 20.6885 4.92516 20.9423 5.15578 21.0639C5.51376 21.2498 6.84585 20.9066 7.23137 21.2104C8.01617 21.8325 10.0023 21.1711 10.9006 21.618C11.2276 21.7789 11.8782 22.1971 12.0469 22.5224C12.1432 22.7119 12.2259 22.6404 12.4186 22.8549C12.6183 23.0801 13.6578 24.2706 13.7232 24.3135C13.9607 24.4636 14.2223 24.7961 14.3944 25.0249C14.563 25.2466 15.5991 26.0545 15.8538 26.3226C15.9536 26.4263 16.0741 26.58 16.1911 26.6587C16.4941 26.866 16.3082 26.8767 16.5388 27.0162C16.6489 27.0841 16.7488 27.1592 16.8417 27.2378C17.7332 27.9957 18.1841 28.4354 18.9689 29.2326C19.2168 29.4829 19.4164 29.5973 19.5988 29.7867C20.2115 30.4124 20.7244 30.1085 21.4507 30.0727C21.9326 30.0513 22.4076 29.3613 22.9308 29.2255C23.1821 29.1575 23.7121 28.725 23.9909 28.5462C24.1871 28.4211 24.0357 28.4926 24.1321 28.4068C24.2732 28.2817 24.1871 28.414 24.3386 28.3067C24.3455 28.2996 25.2335 27.0734 25.3196 26.9411C25.471 26.7051 25.3884 26.9733 25.5812 26.6408C25.6156 26.5836 26.1491 26.0044 26.3694 25.6505C26.452 25.5147 26.7894 25.1322 26.8754 24.9999C27.0372 24.7568 26.9064 24.8533 27.1233 24.6531C27.2437 24.5423 27.1508 24.5065 27.3263 24.2634C27.4434 24.099 27.8736 22.6368 27.97 22.551C28.5173 22.5761 28.6378 23.1552 28.7961 23.6235C28.951 24.0918 29.0956 24.5673 29.2711 25.0571C29.5086 25.7184 29.6498 27.1591 29.7496 27.4594C29.8597 27.7848 29.7392 28.1172 29.8253 28.3568C29.9836 28.8072 29.5671 31.0773 29.4054 31.5921C29.3331 31.8245 29.2367 32.9613 29.1885 33.2902C29.1541 33.5226 28.8615 34.5736 28.7479 34.7881C28.1318 35.1241 26.0631 34.1232 25.4745 33.8229C25.0786 33.6191 24.2766 33.4189 23.8051 33.2616C23.5779 33.1865 23.1166 33.1508 22.886 33.0685C22.5315 32.9398 22.4833 32.8612 22.0393 32.7682C21.2441 32.6038 21.1753 32.3679 20.1461 32.4322C19.7675 32.4537 18.8312 32.7754 18.6282 33.1543C18.3769 33.6191 17.926 33.7585 17.7057 34.4949C17.4819 35.2457 17.5921 35.7891 17.6299 36.5184C17.6747 37.3692 19.8501 39.7537 20.6246 40.3007C20.8277 40.4437 21.0996 40.7225 21.2579 40.794C21.4782 40.8941 21.6331 41.2016 21.8706 41.3338C22.3043 41.5733 22.6795 41.9273 23.2406 42.2097C23.6949 42.4385 24.2388 42.7924 24.6862 43.0069C25.0924 43.1999 27.6878 44.1831 27.3711 44.7372C26.989 44.9874 25.1922 45.0589 24.7998 45.1948C23.96 45.4808 23.7087 46.0706 23.1476 46.6355C23.0375 46.7463 22.2974 48.5302 22.2045 48.7876C21.8672 49.6992 22.7483 50.4106 23.3851 50.6501C23.5848 50.7252 23.8842 50.668 24.108 50.6716C24.4384 50.6752 24.2938 50.8003 24.7379 50.7931C24.9857 50.7896 25.2404 50.7896 25.4883 50.7931C25.9116 50.8003 25.8738 50.6859 26.1491 50.6752C27.0992 50.6287 27.8908 50.3498 28.8925 50.3641C29.3055 50.3713 29.8046 50.214 30.2005 50.1425C30.7719 50.0388 30.8166 49.9244 31.3364 49.7421C31.715 49.6098 32.2417 49.5884 32.5962 49.4704C33.7183 49.0986 34.7991 48.6875 35.8593 48.1513C36.1932 47.9832 36.5477 47.7151 36.9091 47.6651C37.2086 47.6222 37.1122 47.5507 37.5459 47.5507C37.9659 47.5507 37.9246 47.6543 38.2103 47.6686C38.6577 47.6901 40.1688 48.2013 40.5715 48.3729C41.2427 48.6589 42.1962 48.9878 42.8468 49.1701C43.3562 49.3131 43.5145 49.3095 43.9723 49.5526C44.3028 49.7278 44.7468 49.9423 45.1254 49.9423C45.7898 49.9423 46.8706 49.4204 46.9256 48.6482C46.9601 48.1799 46.9222 47.5542 46.9256 47.0645C46.9325 46.3995 46.5126 46.6712 46.5091 45.9169C46.5057 45.2949 45.3733 44.8373 45.3733 43.9364C45.8861 43.7362 46.1925 44.0937 46.9773 43.4788C47.3834 43.1606 47.8963 42.9354 48.2508 42.678C49.0356 42.106 49.817 41.3338 50.5192 40.7547C50.6947 40.6081 50.5743 40.6081 50.7533 40.4794C50.8806 40.3865 50.9391 40.2828 50.9976 40.1863C51.0871 40.0361 51.3625 39.7751 51.4967 39.6393C51.7824 39.3533 52.1198 38.7885 52.4158 38.4703C52.6533 38.2129 53.1386 37.6016 53.3211 37.287C53.5 36.9795 53.3727 36.9617 53.6962 36.6113C53.9751 36.311 53.9475 36.2109 53.951 35.7819C53.9579 34.9954 53.1455 33.5261 52.4812 33.0578C51.8065 32.5823 51.8237 32.6181 51.0803 32.3893C50.5984 32.2392 49.9306 32.7325 49.4453 32.7968C49.3454 32.8111 47.8825 33.2973 47.8825 33.2973C47.6278 33.5118 46.8637 33.9158 46.5401 34.0266C46.0307 34.1982 45.5729 34.3698 45.1151 34.6701C45.0153 34.7345 43.5352 34.9704 43.3046 34.8918C43.1531 34.7488 42.5783 32.2249 42.4853 31.8352C42.3545 31.2989 42.0998 30.9593 42.0895 30.2908C42.0861 30.0406 41.9793 29.8618 41.9793 29.4292C41.9793 28.4461 41.9966 27.4523 41.9759 26.4692C41.9725 26.2583 42.2823 25.0142 42.3477 24.8748C42.5473 24.4565 42.7986 24.0525 43.0051 23.6056C43.2082 23.1695 43.3493 22.5868 43.9138 22.5618C44.0515 22.6833 44.024 22.9979 44.0997 23.1731C44.32 23.67 44.8225 24.1598 45.0015 24.6781C45.0669 24.864 45.1839 24.7461 45.356 25.1143C45.4524 25.3216 45.5281 25.4038 45.6934 25.5683C45.986 25.865 46.2097 26.2225 46.4265 26.4442C46.9153 26.9375 47.5246 27.5881 48.0856 27.9635C48.4952 28.2388 48.9393 28.8537 49.3558 29.0574C49.4797 29.1182 49.5107 29.1218 49.6174 29.1861C49.8858 29.3506 49.6346 29.2326 49.8067 29.4185C50.2438 29.465 50.4641 29.6902 50.9632 29.7403C51.1938 29.7617 51.4899 29.7403 51.6207 29.6759C51.8306 29.5722 51.7136 29.5973 51.8065 29.4972C51.9614 29.3256 51.8754 29.5258 52.0578 29.3542C52.4089 29.0217 52.5535 29.0503 53.0216 28.8322C53.2729 28.7143 53.2281 28.6392 53.4828 28.5641C53.7651 28.4819 53.5448 28.5248 53.6928 28.4068C53.827 28.3031 53.8236 28.4032 54.0095 28.3353C54.4053 27.8098 54.4122 27.9242 54.753 27.556C54.9354 27.3593 55.0318 27.3772 55.2108 27.2557C55.3416 27.1663 55.3175 27.0269 55.5791 26.8624C56.0954 26.5443 56.8079 25.9401 57.2485 25.4932C57.6065 25.1322 58.498 24.4064 58.8491 24.0525C59.3585 23.5342 59.892 23.1302 60.4669 22.6047C60.9212 22.19 61.675 21.6359 62.1913 21.2927C62.5321 21.0674 63.8814 20.5348 64.3633 20.4168C64.618 20.356 64.7006 20.2666 64.9072 20.2059C65.4407 20.0557 66.2014 19.9413 66.6076 19.6446C66.7762 19.5195 66.8623 19.5302 67.086 19.3658C67.3889 19.1477 68.1806 18.64 68.3906 18.3683L68.2804 18.0752C67.4337 18.0752 67.7056 18.3683 67.4165 18.3898C67.0378 18.4148 67.1721 17.6677 67.1721 17.4174C67.1721 17.3102 67.3235 14.8113 66.8072 15.7729C66.7005 15.9731 66.5318 16.4307 66.4733 16.6631C66.3769 17.0349 66.4423 17.6069 66.3769 17.7964C66.2668 18.1181 65.1756 18.8974 65.2066 17.732C65.2376 16.6953 64.5044 16.706 64.2704 16.2341C64.2187 16.1269 63.8711 15.4977 63.8401 15.4476C63.6164 15.1044 63.4202 15.0365 62.9968 15.0901C62.5906 15.1437 62.7111 15.5155 62.5459 15.8587C62.4977 15.9553 62.1569 16.6309 62.1294 16.6631C62.0915 16.7096 61.2792 18.0681 61.2207 18.1896C61.1002 18.4291 60.8902 18.5828 60.7181 18.9046C60.4875 19.3372 60.7078 19.4945 60.4015 19.8091C59.9333 20.2952 59.5994 20.5383 59.1313 20.9602C58.1847 21.811 57.2898 22.3008 56.2227 22.8799C55.1936 23.4376 54.1231 24.1169 53.1558 24.6352C52.8254 24.8104 51.7239 25.2251 51.242 24.9999C50.7154 24.7532 50.4848 24.0954 50.1578 23.6557C50.0476 23.5091 49.373 22.2293 49.3213 22.0827C48.953 21.0317 48.2405 20.5812 47.5177 19.0154C47.3593 18.6686 46.9876 17.5711 46.757 17.3352C46.3646 16.9276 46.22 16.5594 45.6727 15.991C45.1598 15.4583 44.8501 15.2224 44.1685 15.083C43.9276 15.0365 44.0721 14.9686 43.6935 14.9757C43.5042 14.9793 43.2701 15.0115 43.0946 14.965C42.9053 14.9149 42.2857 14.7541 42.1136 14.7505C41.6076 14.7326 40.9502 14.2321 40.4683 13.989C40.1826 13.8425 39.2635 13.3277 39.0054 13.0381C38.5028 12.4768 38.6577 11.6331 38.6577 10.9289C38.6577 10.2925 38.7197 9.39523 39.0123 8.82681C39.2635 8.34419 39.7454 7.6721 39.8315 7.20736C39.9933 6.3458 39.4942 3.82188 39.2222 3.04612C39.1018 2.70292 39.1259 2.43122 38.9228 2.1202C38.8023 1.93431 38.5545 1.55894 38.4237 1.40521C38.4133 1.39091 37.1604 0.468578 37.0296 0.382779C36.3584 -0.0569399 36.0555 -0.135589 35.3602 0.239781C34.6821 0.604426 33.825 0.314855 33.3638 0.6366C32.7545 1.06202 32.5859 1.34802 32.3759 2.08088C32.2864 2.40263 32.2589 2.77084 32.1349 3.06399C31.9491 3.51086 32.0317 3.67888 31.9904 4.15078C31.9663 4.42247 31.8802 4.27947 31.8768 4.63697C31.8768 4.81929 31.8974 5.10529 31.8802 5.26973C31.8183 5.80598 31.0025 6.70329 32.1969 8.0153C32.6857 8.55154 32.9025 8.86256 33.023 9.6276C33.0919 10.0637 33.4257 11.2792 33.2467 11.7118C32.9335 12.459 33.7321 12.6949 32.5411 13.4492C32.2485 13.6351 31.1505 14.0641 30.8097 14.1177C30.4793 14.1714 29.3882 14.654 28.9545 14.6611C27.2816 14.6862 26.8444 15.1866 25.7395 16.2627C25.0546 16.9312 25.1716 16.9527 24.8102 17.7678C24.3283 18.851 24.0495 20.2345 23.2096 21.0424C22.8895 21.3499 22.4627 22.0934 22.263 22.501C22.1804 22.6726 21.9601 23.1874 21.9085 23.3697C21.788 23.788 21.5952 23.8702 21.4817 24.1633C21.2889 24.6638 21.0411 25.6577 20.215 25.2537C20.0738 25.1858 19.6573 24.8605 19.4956 24.7675C19.3957 24.7103 18.7073 24.3528 18.7039 24.3528C18.3803 24.0775 17.9776 23.8559 17.5921 23.67C17.327 23.5413 17.3924 23.5449 17.241 23.4019C17.124 23.2911 16.5044 22.9943 16.4768 22.9622C16.2875 22.7262 16.0741 22.6762 15.7781 22.4509C15.5509 22.2793 15.3203 22.1006 15.0553 21.9647C14.773 21.8182 14.5975 21.6108 14.3565 21.4535C14.1603 21.3248 13.8299 21.0853 13.6302 20.9709C13.3549 20.81 13.2344 20.5991 12.9418 20.449C12.3945 20.1665 11.2586 18.565 10.5289 18.018C10.0264 17.6426 9.68558 17.3638 9.24155 16.8847C9.07633 16.706 8.2399 15.6192 8.09189 15.6085C6.7839 15.512 7.5205 16.1769 7.00419 16.9527C6.62556 17.5247 6.44657 18.1181 6.4569 18.8545C6.47411 19.9735 5.47246 19.0655 5.16955 18.7509C5.06973 18.6293 4.21265 17.3531 4.17823 17.3388ZM63.1723 17.2136C63.1483 17.564 63.1792 17.4067 63.3341 17.5318L63.3204 17.6784C63.1001 17.7213 63.1827 17.5783 63.076 17.5175C63.0209 17.614 63.0553 17.7392 63.1173 17.825C63.2653 18.018 63.2274 17.7356 63.3135 17.9501L63.162 18.0144L63.1689 18.1717C63.4236 18.2289 63.3479 18.1145 63.5062 18.136C63.5441 18.329 63.4202 18.3898 63.52 18.4899C63.6336 18.4577 63.5372 18.497 63.5992 18.3826C63.6474 18.2969 63.637 18.3433 63.6852 18.2647C63.5854 18.0716 63.5441 18.2146 63.606 17.9608C63.6233 17.8929 63.5751 17.6712 63.5441 17.6069C63.5406 17.614 63.5406 17.6176 63.5372 17.6283C63.5269 17.707 63.4993 17.7356 63.458 17.7535C63.3685 17.6855 63.4271 17.6998 63.4959 17.5819C63.3754 17.2387 63.31 17.6569 63.31 17.185L63.1723 17.2136ZM8.15729 18.3791C8.26056 18.422 8.21925 18.3683 8.33628 18.3648C8.42233 18.5364 8.36382 18.447 8.44643 18.5042C8.53592 18.565 8.56346 18.565 8.52215 18.6829C8.41201 18.7544 8.33628 18.6937 8.20204 18.6901L8.39136 18.8724C8.45331 18.9511 8.35349 18.8867 8.45331 18.9511C8.58411 18.9832 8.54969 18.8581 8.64607 18.8188C8.65296 18.8152 8.70803 18.8152 8.72868 18.8081C8.73212 18.6972 8.74589 18.6114 8.71147 18.5113C8.70803 18.5042 8.70459 18.497 8.70114 18.4899L8.64607 18.3004L8.4361 18.3326L8.42233 18.1074C8.264 18.1038 8.31563 18.111 8.25711 18.2111C8.1745 18.3648 8.16762 18.2397 8.15729 18.3791Z" fill="white"/>
</svg>
