<svg width="208" height="173" viewBox="0 0 208 173" fill="none" xmlns="http://www.w3.org/2000/svg">
<path d="M70.243 72.7812L45.2715 75.7463C42.8238 76.0375 40.6082 74.2425 40.3264 71.7381L38.3483 54.2834L72.1852 50.2667L74.1632 67.7214C74.445 70.223 72.6907 72.49 70.243 72.7812Z" fill="#FFAED7"/>
<path d="M38.3456 54.2828L56.7917 65.7563L72.1824 50.2633L38.3456 54.2828Z" fill="#357184"/>
<path d="M48.5785 83.146L15.7998 91.3801L12.2111 86.7585L1.48379 89.4523C0.779315 89.6304 0.348341 90.3568 0.519625 91.0805C0.693671 91.8013 1.40367 92.2422 2.11091 92.067L11.2 89.783L17.8911 98.3987C18.0044 98.5429 18.1398 98.656 18.2889 98.7379L27.0769 110.237C27.4416 110.715 28.0494 110.929 28.6268 110.785L46.758 106.231C47.363 106.079 47.8161 105.562 47.8962 104.931L50.4378 84.8448C50.5704 83.7679 49.609 82.886 48.5785 83.146Z" fill="#FFAED7"/>
<path d="M36.7543 114.87C37.2488 116.933 36.0166 119.017 33.9999 119.523C31.9832 120.028 29.9471 118.768 29.4526 116.704C28.9581 114.641 30.1902 112.558 32.207 112.052C34.2237 111.546 36.2598 112.806 36.7543 114.87Z" fill="#FFAED7"/>
<path d="M48.6834 111.874C49.178 113.937 47.9458 116.02 45.9291 116.526C43.9124 117.032 41.8763 115.771 41.3818 113.708C40.8873 111.645 42.1194 109.561 44.1361 109.055C46.1529 108.549 48.1862 109.81 48.6834 111.874Z" fill="#FFAED7"/>
<path d="M49.667 90.9052L50.0593 88.675L45.3269 89.865L46.3546 83.7057L44.2136 84.2428L43.1886 90.4021L34.3951 92.6097L33.0608 87.044L31.0965 87.5387L32.4309 93.1044L23.7949 95.2724L20.0985 90.3003L17.9574 90.8374L21.6538 95.8095L16.8303 97.0222L18.2171 98.8058L22.991 97.6073L27.2399 103.323L22.629 104.482L24.0159 106.265L28.577 105.121L32.1381 109.909L34.2791 109.372L30.7181 104.584L34.9339 103.524L36.2213 108.883L38.1855 108.388L36.9009 103.029L41.2741 101.929L40.2851 107.86L42.4261 107.323L43.4152 101.392L48.5122 100.112L48.7913 97.9097L43.7881 99.1676L44.9678 92.0896L49.667 90.9052ZM29.3782 102.783L25.1292 97.0674L32.9116 95.1113L34.4476 101.508L29.3782 102.783ZM41.636 99.7047L36.4091 101.016L34.8731 94.6195L42.8129 92.6239L41.636 99.7047Z" fill="#FFF3C0"/>
<path d="M18.4627 46.8119L17.1891 47.2048L13.8049 35.7059C13.3269 34.0834 11.65 33.1619 10.0642 33.6509L7.0419 34.5809C5.45614 35.0699 4.55553 36.7857 5.03346 38.4082L8.4177 49.9071L7.14412 50.3L3.75988 38.8011C3.07199 36.4606 4.37043 33.9816 6.66066 33.2778L9.68299 32.3478C11.9705 31.6439 14.3933 32.9725 15.0812 35.3158L18.4627 46.8119Z" fill="#FFAED7"/>
<path d="M0 47.072L8.8294 44.3527L16.6974 71.1354L7.88182 73.8519L0 47.072Z" fill="#357184"/>
<path d="M25.2264 39.2959L6.09342 45.1924L13.9764 71.9709L33.1094 66.0744L25.2264 39.2959Z" fill="#FFF3C0"/>
<path d="M24.0652 45.0848L22.7916 45.4777L19.4074 33.9788C18.9294 32.3563 17.2525 31.4348 15.6667 31.9238L12.6444 32.8538C11.0586 33.3428 10.158 35.0586 10.636 36.6811L14.0202 48.18L12.7466 48.573L9.36239 37.074C8.67449 34.7335 9.97293 32.2546 12.2632 31.5507L15.2855 30.6207C17.573 29.9169 19.9958 31.2454 20.6837 33.5888L24.0652 45.0848Z" fill="#FFAED7"/>
<path d="M14.1147 50.8654C13.3991 51.0859 12.6449 50.6703 12.4295 49.9382L12.0151 48.5306C11.7996 47.7984 12.2057 47.0268 12.9212 46.8063C13.6367 46.5858 14.3909 47.0013 14.6064 47.7334L15.0208 49.1411C15.2335 49.8732 14.8302 50.6449 14.1147 50.8654Z" fill="#FFAED7"/>
<path d="M24.1619 47.7701C23.4464 47.9906 22.6922 47.5751 22.4767 46.843L22.0623 45.4353C21.8468 44.7032 22.2529 43.9315 22.9684 43.711C23.684 43.4905 24.4382 43.906 24.6537 44.6382L25.068 46.0459C25.2808 46.778 24.8774 47.5496 24.1619 47.7701Z" fill="#FFAED7"/>
<path d="M10.2605 71.0252C10.1279 71.0648 9.98975 70.9885 9.94831 70.8556L2.7019 46.2409C2.87594 46.1872 3.07209 46.1279 3.17983 46.094L10.4262 70.7086C10.4677 70.8415 10.3931 70.9857 10.2605 71.0252Z" fill="#FFF4C7"/>
<path d="M13.9705 71.9749L13.8849 71.681L10.0973 70.4853L7.79322 73.5494L7.88163 73.8519L8.29326 73.7247L10.2796 71.0761L13.5423 72.1078L13.9705 71.9749Z" fill="#FFF4C7"/>
<path d="M50.1725 138.653L51.3715 139.08L55.0541 128.277C55.5735 126.753 57.2089 125.945 58.698 126.476L61.5352 127.488C63.0243 128.019 63.8144 129.693 63.295 131.216L59.6124 142.02L60.8114 142.447L64.494 131.643C65.2427 129.444 64.1045 127.03 61.9552 126.264L59.1179 125.252C56.9686 124.486 54.6093 125.651 53.8606 127.85L50.1725 138.653Z" fill="#3EA0C6"/>
<path d="M67.7371 139.677L59.4409 136.717L50.8767 161.88L59.1591 164.834L67.7371 139.677Z" fill="#FF7F6E"/>
<path d="M44.0454 131.234L35.4676 156.391L53.4427 162.808L62.0205 137.65L44.0454 131.234Z" fill="#FFD876"/>
<path d="M57.0842 124.588L54.247 123.576C52.0976 122.81 49.7383 123.974 48.9897 126.174L45.7933 135.55C45.3955 135.538 45.0197 135.781 44.8816 136.189L44.1992 138.193C44.028 138.693 44.2876 139.238 44.7739 139.414L45.4397 139.651C45.9287 139.826 46.4618 139.561 46.6331 139.063L47.3155 137.059C47.4536 136.655 47.3072 136.225 46.9923 135.982L50.1887 126.606C50.708 125.083 52.3435 124.274 53.8326 124.805L56.6698 125.817C58.1589 126.349 58.949 128.022 58.4296 129.546L55.2332 138.922C54.8354 138.911 54.4597 139.157 54.3216 139.561L53.6392 141.562C53.4679 142.062 53.7276 142.608 54.2138 142.783L54.8796 143.021C55.3686 143.196 55.9018 142.93 56.0731 142.433L56.7554 140.429C56.8936 140.024 56.7472 139.592 56.4295 139.349L59.6258 129.973C60.3745 127.771 59.2335 125.357 57.0842 124.588Z" fill="#3EA0C6"/>
<path d="M57.0097 162.044C57.134 162.089 57.2694 162.021 57.3136 161.894L65.1982 138.769C65.0352 138.713 64.8501 138.645 64.7479 138.608L56.8633 161.733C56.8191 161.863 56.8854 162.002 57.0097 162.044Z" fill="#FFF4C7"/>
<path d="M53.4404 162.793L53.5344 162.516L57.1866 161.538L59.2558 164.551L59.1591 164.834L58.7751 164.698L56.9877 162.095L53.8438 162.937L53.4404 162.793Z" fill="#FFF4C7"/>
<path d="M27.311 129.192C24.8412 127.033 21.1531 127.737 19.5397 130.439C20.0729 127.321 17.7634 124.297 14.5145 124.249C10.9175 124.195 8.36485 127.816 9.55002 131.29L14.183 144.869L14.1609 144.931L14.1995 144.909L14.2134 144.951L14.2382 144.889L26.4878 137.834C29.6206 136.03 30.0433 131.587 27.311 129.192Z" fill="#FF7F6E"/>
<path d="M1.76811 111.26C2.54717 109.672 4.50865 109.236 5.85406 110.226C4.95896 108.801 5.48662 106.819 7.0779 106.107C8.84047 105.318 10.8323 106.562 10.9511 108.527L11.4153 116.207L11.4401 116.232L11.418 116.229L11.4208 116.252L11.3959 116.227L3.92573 115.345C2.01398 115.119 0.906161 113.018 1.76811 111.26Z" fill="#FF7F6E"/>
<path d="M9.59766 9.69771C10.1474 9.008 11.1503 9.01648 11.7 9.64683C11.4155 8.85253 11.8824 7.94517 12.7333 7.77274C13.6781 7.58335 14.5179 8.41157 14.366 9.38395L13.7775 13.183L13.7858 13.2L13.7748 13.1971L13.772 13.2084L13.7637 13.1943L10.2137 11.9336C9.30759 11.6085 8.98988 10.4581 9.59766 9.69771Z" fill="#FF7F6E"/>
<path d="M21.4819 17.4965C22.9765 17.553 24.0098 18.9692 23.7335 20.3995C24.5043 19.1727 26.2061 18.8872 27.3222 19.9048C28.5571 21.0327 28.3167 23.0764 26.858 23.8735L21.1504 26.9941L21.1394 27.0224L21.1338 27.0026L21.1173 27.0111L21.1283 26.9828L19.1282 20.685C18.6171 19.0766 19.8271 17.4343 21.4819 17.4965Z" fill="#FF7F6E"/>
<path d="M101.591 3.6062L45.0561 0.0134962C41.1331 -0.235251 37.7461 2.98434 37.4892 7.20173L36.5471 22.706C36.2902 26.9263 39.2628 30.5501 43.1858 30.7988L89.7252 33.7555L85.095 40.1183C84.6447 40.7374 85.2442 41.5882 85.9183 41.2914L102.442 33.993C102.715 33.8912 102.983 33.7753 103.243 33.6396C105.492 32.4694 107.111 30.0667 107.285 27.2004L108.227 11.6961C108.486 7.47875 105.514 3.85495 101.591 3.6062Z" fill="#FFD255"/>
<path d="M98.2064 12.6233C98.1981 12.6233 98.1898 12.6233 98.1788 12.6233L45.0698 9.24829C44.7079 9.22568 44.4316 8.90627 44.4537 8.53597C44.4758 8.16568 44.788 7.88583 45.1499 7.90562L98.2589 11.2807C98.6208 11.3033 98.8971 11.6227 98.875 11.993C98.8529 12.352 98.5573 12.629 98.2064 12.6233Z" fill="#FFFAE3"/>
<path d="M97.9132 17.4089C97.9049 17.4089 97.8967 17.4089 97.8856 17.4089L44.7766 14.0338C44.4147 14.0112 44.1384 13.6918 44.1605 13.3215C44.1826 12.9512 44.4948 12.6714 44.8567 12.6911L97.9657 16.0662C98.3276 16.0888 98.6039 16.4082 98.5818 16.7785C98.5624 17.1403 98.2668 17.4173 97.9132 17.4089Z" fill="#FFFAE3"/>
<path d="M97.6235 22.1944C97.6152 22.1944 97.6069 22.1944 97.5958 22.1944L44.4868 18.8165C44.1249 18.7939 43.8486 18.4745 43.8707 18.1042C43.8928 17.7339 44.2078 17.4569 44.5669 17.4738L97.676 20.8489C98.0379 20.8715 98.3141 21.1909 98.292 21.5612C98.2727 21.9259 97.9743 22.2029 97.6235 22.1944Z" fill="#FFFAE3"/>
<path d="M97.3333 26.98C97.3251 26.98 97.3168 26.98 97.3057 26.98L44.1967 23.605C43.8348 23.5824 43.5585 23.2629 43.5806 22.8926C43.6027 22.5224 43.9149 22.2425 44.2768 22.2623L97.3858 25.6374C97.7477 25.66 98.024 25.9794 98.0019 26.3497C97.9826 26.7115 97.6842 26.9885 97.3333 26.98Z" fill="#FFFAE3"/>
<path d="M89.728 33.7555L101.011 34.629L96.0628 36.8111L89.1921 34.4904L89.728 33.7555Z" fill="#FCBD30"/>
<path d="M168.535 148.674C164.007 148.815 159.479 149.039 154.957 149.296C152.617 149.429 150.274 149.525 147.934 149.627C142.6 149.858 137.268 150.132 131.93 150.296C128.701 150.395 125.466 150.359 122.236 150.316C118.482 150.271 114.741 150.534 110.995 150.74C110.318 150.777 109.641 150.777 108.962 150.774C106.511 150.768 104.063 150.805 101.616 150.91C98.5962 151.037 95.5794 150.599 92.5543 150.774C91.3111 150.845 90.0707 151.023 88.8137 150.828C88.1368 150.723 87.4848 150.585 86.8688 150.282C86.8715 150.053 87.0456 149.977 87.203 149.887C91.1122 147.642 94.5019 144.748 97.5602 141.404C100.179 138.54 102.445 135.406 104.699 132.251C106.116 130.267 107.202 128.096 108.246 125.899C108.87 124.582 109.677 123.364 110.197 121.993C110.862 121.063 111.368 120.04 111.854 119.008C112.793 117.015 113.611 114.955 114.664 113.03C116.805 109.117 118.697 105.095 120.264 100.906C120.885 99.241 121.761 97.6807 122.222 95.9423C122.941 93.2428 123.717 90.566 124.606 87.9174C126.515 82.2414 127.759 76.3874 128.969 70.5249C129.521 67.8452 130.046 65.157 130.361 62.4321C130.643 60.999 130.693 59.5347 130.902 58.0988C131.237 55.8064 131.328 53.5026 131.447 51.2017C131.599 48.2507 131.494 45.2911 131.135 42.3599C130.842 39.9713 130.565 37.5602 129.529 35.3384C129.366 34.9851 129.206 34.6035 129.311 34.1823C133.375 38.2018 137.378 42.2864 141.746 45.9724C143.113 47.1257 144.398 48.3779 145.561 49.7545C146.26 50.5799 147.02 51.3544 147.791 52.1119C152.598 56.8522 157.029 61.9713 161.805 66.7428C168.262 73.1932 174.679 79.6805 181.196 86.0659C185.147 89.9385 189.258 93.6414 193.291 97.4263C196.134 100.095 198.944 102.8 201.817 105.431C203.074 106.585 204.427 107.633 205.789 108.66C206.336 109.072 206.604 109.618 206.848 110.194C207.831 112.518 208.151 114.98 207.936 117.47C207.038 127.824 202.46 136.46 195.858 144.117C194.976 145.138 193.965 146.023 192.88 146.817C192.286 147.252 191.67 147.456 190.921 147.441C190.106 147.427 189.261 147.227 188.465 147.617C188.432 147.3 188.211 147.28 187.959 147.249C185.208 146.902 182.467 147.077 179.74 147.487C177.486 147.826 175.232 148.128 172.955 148.222C171.712 148.273 170.466 148.346 169.223 148.369C168.916 148.371 168.759 148.564 168.535 148.674Z" fill="#5A9ECD"/>
<path d="M129.308 34.1823C129.206 34.6007 129.364 34.9851 129.527 35.3384C130.56 37.5602 130.839 39.9713 131.132 42.3599C131.491 45.2911 131.596 48.2507 131.444 51.2017C131.458 55.5774 131.3 55.5294 131.115 58.0394C129.601 78.6996 120.534 102.786 111.199 121.863C110.158 124.059 106.119 130.264 104.699 132.251C102.444 135.405 100.179 138.54 97.56 141.404C94.499 144.748 91.1092 147.642 87.2028 149.887C87.0426 149.977 86.8686 150.053 86.8686 150.282C82.1803 149.033 78.2132 146.709 76.2269 141.961C74.6964 138.3 73.2322 134.591 73.0415 130.487C72.9227 127.943 72.431 125.413 72.0801 122.881C71.9475 121.919 72.0083 120.964 72.0028 120.006C71.9807 115.63 71.9309 111.246 72.7791 106.93C74.3786 98.8057 75.8622 90.6536 78.3872 82.7531C80.8764 74.9656 83.6307 67.2855 87.3465 60.0096C89.8936 55.0206 92.6231 50.1332 95.6731 45.4438C97.1069 43.2418 98.8087 41.2575 100.85 39.5926C101.765 38.8463 102.602 37.9955 103.478 37.1984C105.947 34.9568 108.807 33.2749 111.542 31.4235C113.188 30.3069 115.125 29.7897 117.095 29.6653C120.067 29.4787 123.018 29.4476 125.791 30.9684C127.253 31.7627 128.308 32.9131 129.308 34.1823Z" fill="#407084"/>
<path d="M182.771 165.671C181.831 165.269 181.381 164.339 180.773 163.613C180.05 162.748 179.282 161.911 178.516 161.1C177 159.489 175.745 157.674 174.386 155.938C173.963 155.401 173.521 154.864 173.057 154.392C171.673 152.99 170.516 151.379 169.121 149.991C168.922 149.793 168.764 149.519 168.441 149.494C168.474 149.219 168.505 148.948 168.538 148.674C168.761 148.564 168.919 148.369 169.22 148.366C170.466 148.343 171.709 148.27 172.952 148.219C175.229 148.123 177.486 147.82 179.737 147.484C182.464 147.074 185.205 146.899 187.956 147.246C188.208 147.278 188.426 147.297 188.462 147.614C188.368 148.453 187.94 149.169 187.652 149.937C186.545 152.903 185.873 156.004 185.009 159.042C184.368 161.287 183.644 163.505 182.771 165.671Z" fill="#508EB8"/>
<path d="M101.257 65.7421C96.7011 63.8652 89.5237 71.1863 85.2278 82.0972C80.9319 93.0082 81.1419 103.374 85.6975 105.253C85.6975 105.253 100.583 113.646 111.589 121.054C118.697 106.441 125.781 89.0169 129.013 72.4611C116.363 69.787 101.257 65.7421 101.257 65.7421Z" fill="#FCBD30"/>
<path d="M101.718 88.9036C106.014 77.9933 105.804 67.6264 101.249 65.7485C96.6936 63.8705 89.518 71.1927 85.2217 82.103C80.9254 93.0132 81.1354 103.38 85.6907 105.258C90.2461 107.136 97.4218 99.8139 101.718 88.9036Z" fill="#F2D05F"/>
<path d="M180.091 172.921C182.619 165.368 178.45 177.814 180.981 170.261C181.503 168.704 182.045 167.149 182.768 165.668C181.829 165.266 181.379 164.337 180.771 163.61C180.044 162.745 179.279 161.908 178.514 161.097C176.997 159.486 175.743 157.671 174.384 155.936C173.961 155.399 173.519 154.862 173.055 154.389C171.671 152.987 170.513 151.376 169.118 149.988C168.919 149.79 168.762 149.516 168.439 149.491C168.389 149.612 168.328 149.734 168.289 149.858C166.311 156.682 166.698 155.791 164.632 162.587L161.642 172.873L180.091 172.921Z" fill="#5A9FCD"/>
</svg>
