<svg width="98" height="30" viewBox="0 0 98 30" fill="none" xmlns="http://www.w3.org/2000/svg">
<g clip-path="url(#clip0_0_1216)">
<path d="M24.7162 17.7598L14.5409 7.76954C14.5279 7.75668 14.5143 7.7442 14.5006 7.7321C13.3895 6.75905 11.7105 6.75558 10.5952 7.72406C10.5813 7.73611 10.5679 7.74854 10.5547 7.7613L0.286713 17.7569C-0.0950251 18.1285 -0.0956599 18.7316 0.285346 19.104C0.6664 19.4763 1.28471 19.4769 1.6664 19.1053L2.4414 18.3508V26.5751C2.4414 28.676 4.19374 30.3852 6.34765 30.3852H9.86327C10.4026 30.3852 10.8398 29.9588 10.8398 29.4327V21.6696H14.2578V29.4327C14.2578 29.9588 14.695 30.3852 15.2344 30.3852H18.6523C20.8062 30.3852 22.5586 28.676 22.5586 26.5751C22.5586 26.049 22.1214 25.6226 21.582 25.6226C21.0427 25.6226 20.6055 26.049 20.6055 26.5751C20.6055 27.6256 19.7293 28.4802 18.6523 28.4802H16.2109V20.7171C16.2109 20.191 15.7737 19.7646 15.2344 19.7646H9.86327C9.32392 19.7646 8.88671 20.191 8.88671 20.7171V28.4802H6.34765C5.27069 28.4802 4.39452 27.6256 4.39452 26.5751V16.4784C4.39452 16.4688 4.39438 16.4594 4.39408 16.4499L11.9114 9.13212C12.2773 8.82908 12.8139 8.83022 13.1784 9.13474L20.6055 16.4268V21.8125C20.6055 22.3386 21.0427 22.765 21.582 22.765C22.1214 22.765 22.5586 22.3386 22.5586 21.8125V18.3444L23.3306 19.1024C23.5215 19.2898 23.7724 19.3836 24.0234 19.3836C24.2723 19.3836 24.5212 19.2914 24.7117 19.1068C25.0943 18.736 25.0964 18.133 24.7162 17.7598Z" fill="#090202"/>
</g>
<g clip-path="url(#clip1_0_1216)">
<path d="M90.1037 18.6799C90.5999 18.6799 91.0021 19.0472 91.0021 19.5003C90.9548 20.5884 89.2524 20.5881 89.2052 19.5003C89.2052 19.0472 89.6075 18.6799 90.1037 18.6799ZM94.6378 12.0756C87.4101 5.49035 75.0156 10.1825 75.0059 19.5003V27.9474C74.9903 29.5954 77.087 30.5848 78.5503 29.6209L80.4208 28.4112C83.9904 30.4956 88.8494 30.5226 92.4565 28.4871C93.4515 27.8862 92.5687 26.5571 91.5255 27.0839C88.3224 28.8924 83.9782 28.7609 80.922 26.7462C80.611 26.546 80.1955 26.5463 79.885 26.7472L77.5117 28.2821C77.3103 28.4123 77.1186 28.3462 77.0456 28.3117C76.9726 28.2772 76.8027 28.1727 76.8027 27.9474V19.5003C76.8027 14.6151 81.1556 10.6408 86.5059 10.6408C94.1681 10.5836 98.8994 18.6358 94.5637 24.4175C94.2881 24.7941 94.3989 25.3035 94.8114 25.5553C95.224 25.8072 95.7818 25.7059 96.0576 25.3293C99.1114 21.2865 98.4921 15.49 94.6378 12.0756ZM85.6115 19.5003C85.6115 19.9533 86.0137 20.3206 86.5099 20.3206C87.7017 20.2774 87.7013 18.723 86.5099 18.6799C86.0137 18.6799 85.6115 19.0472 85.6115 19.5003ZM82.0177 19.5003C82.0177 19.9533 82.4199 20.3206 82.9161 20.3206C84.1079 20.2774 84.1075 18.723 82.9161 18.6799C82.4199 18.6799 82.0177 19.0472 82.0177 19.5003Z" fill="#999999"/>
</g>
<defs>
<clipPath id="clip0_0_1216">
<rect width="30" height="30" fill="white"/>
</clipPath>
<clipPath id="clip1_0_1216">
<rect width="23" height="21" fill="white" transform="translate(75 9)"/>
</clipPath>
</defs>
</svg>
